<svg width="1440" height="533" viewBox="0 0 1440 533" fill="none" xmlns="http://www.w3.org/2000/svg">
<rect width="1440" height="533" fill="#E5E5E5"/>
<rect width="1440" height="820" fill="#F0F0F7"/>
<rect width="1440" height="533" fill="#8257E5"/>
<path d="M986.753 475.21C987.966 468.846 991.732 463.011 997.02 459.286" stroke="#04D361" stroke-width="0.779" stroke-miterlimit="10"/>
<path d="M986.589 477C986.817 471.686 988.868 458.893 993.719 450.885" stroke="#04D361" stroke-width="0.779" stroke-miterlimit="10"/>
<path d="M986.662 476.343C987.501 466.865 987.428 456.391 985.95 446.986" stroke="#04D361" stroke-width="0.779" stroke-miterlimit="10"/>
<path d="M997.793 456.811L997.793 456.811C997.746 456.894 997.699 456.978 997.652 457.061C996.993 458.226 996.334 459.389 995.522 460.489C995.735 460.418 995.96 460.332 996.194 460.238C996.312 460.191 996.434 460.141 996.558 460.091C996.815 459.986 997.08 459.878 997.331 459.784C997.704 459.645 998.091 459.521 998.452 459.467L998.452 459.467C1000.13 459.221 1001.83 459.289 1003.48 459.502L1003.48 459.502C1004.76 459.67 1006.04 459.923 1007.29 460.173C1007.7 460.254 1008.11 460.335 1008.51 460.412C1010.17 460.729 1011.8 460.992 1013.45 461.014L1013.45 461.014C1014.38 461.027 1015.38 460.906 1016.21 460.583C1017.05 460.261 1017.69 459.756 1018.02 459.019L1018.02 459.018C1018.56 457.812 1018 456.222 1016.88 455.287L1016.88 455.286C1015.77 454.353 1014.24 453.982 1012.67 453.83L1012.67 453.83C1012.09 453.774 1011.52 453.745 1010.93 453.716C1010.72 453.705 1010.5 453.694 1010.28 453.681C1009.47 453.635 1008.64 453.57 1007.81 453.413L1007.81 453.412C1007.32 453.317 1006.84 453.191 1006.37 453.065C1006.29 453.045 1006.22 453.025 1006.14 453.005C1005.75 452.898 1005.36 452.794 1004.98 452.706C1004.06 452.497 1003.21 452.391 1002.37 452.554L997.793 456.811ZM997.793 456.811L997.794 456.809M997.793 456.811L997.794 456.809M997.794 456.809C998.915 454.811 1000.36 452.945 1002.37 452.554L997.794 456.809Z" fill="#04D361" stroke="#04D361"/>
<path d="M993.107 452.007C993.732 451.484 994.324 450.836 994.937 450.143C995.017 450.053 995.096 449.963 995.176 449.872C995.913 449.036 996.687 448.157 997.547 447.472C999.904 445.588 1002.76 444.133 1005.84 443.895L993.107 452.007ZM993.107 452.007C993.138 451.827 993.185 451.618 993.249 451.381C993.468 450.575 993.856 449.547 994.3 448.485C994.973 446.877 995.75 445.246 996.223 444.253C996.375 443.934 996.496 443.681 996.572 443.515C998.131 440.13 1000.54 436.952 1003.94 435.999L1003.94 435.999C1005.38 435.595 1006.89 435.611 1008.46 435.751C1008.99 435.799 1009.55 435.862 1010.11 435.926C1011.15 436.047 1012.23 436.17 1013.27 436.2L1013.28 436.2C1013.78 436.212 1014.29 436.204 1014.79 436.196C1015.03 436.192 1015.27 436.188 1015.51 436.187C1016.24 436.182 1016.95 436.2 1017.65 436.304C1019.03 436.513 1020.35 437.134 1021 438.229L1021 438.23C1021.5 439.07 1021.53 440.097 1021.19 441.086C1020.84 442.077 1020.14 442.983 1019.26 443.541C1017.45 444.688 1015.12 444.77 1012.84 444.517C1012.18 444.444 1011.54 444.35 1010.9 444.254C1010.41 444.182 1009.91 444.109 1009.4 444.043C1008.23 443.895 1007.04 443.799 1005.84 443.894L993.107 452.007ZM993.085 452.594C993.085 452.594 993.085 452.593 993.085 452.592L993.085 452.594Z" fill="#04D361" stroke="#04D361"/>
<path d="M988.229 437.871L988.229 437.872C988.522 439.665 988.224 441.507 987.662 443.283C987.622 443.41 987.574 443.57 987.518 443.753C987.35 444.313 987.114 445.093 986.824 445.831C986.632 446.319 986.427 446.759 986.218 447.081C986.114 447.242 986.018 447.358 985.935 447.434C985.85 447.511 985.802 447.525 985.793 447.527L985.792 447.527C985.688 447.547 985.477 447.517 985.14 447.349C984.821 447.19 984.464 446.945 984.102 446.659C983.38 446.089 982.702 445.404 982.373 445.061C981.368 444.002 980.568 442.755 980.074 441.392L980.073 441.39C979.495 439.816 979.295 438.134 979.095 436.381C979.091 436.343 979.087 436.304 979.082 436.266C978.889 434.569 978.689 432.807 978.106 431.134L978.106 431.134C977.443 429.239 976.314 427.545 975.232 425.922C974.948 425.496 974.667 425.075 974.399 424.656C973.084 422.604 971.971 420.409 971.988 418.108C972.005 415.802 973.47 413.482 975.57 413.109L975.571 413.109C976.956 412.86 978.429 413.442 979.648 414.367L979.649 414.367C981.372 415.668 982.63 417.57 983.168 419.67C983.491 420.941 983.554 422.264 983.616 423.647L983.618 423.703C983.679 425.05 983.741 426.455 984.079 427.821C984.498 429.534 985.329 431.106 986.126 432.612C986.186 432.727 986.247 432.841 986.307 432.955C987.168 434.589 987.952 436.159 988.229 437.871Z" fill="#04D361" stroke="#04D361"/>
<path d="M986.57 475.448C985.95 467.075 983.798 457.615 979.121 450.648" stroke="#04D361" stroke-width="0.779" stroke-miterlimit="10"/>
<path d="M977.993 444.35L977.993 444.352C978.663 446.219 979.076 448.177 979.421 450.149L979.422 450.151C979.44 450.255 979.472 450.388 979.503 450.52C979.515 450.571 979.526 450.621 979.537 450.669C979.581 450.858 979.62 451.052 979.642 451.236C979.663 451.424 979.662 451.573 979.64 451.681C979.62 451.784 979.589 451.81 979.58 451.816L979.58 451.816C979.576 451.82 979.539 451.846 979.411 451.827C979.282 451.808 979.116 451.748 978.925 451.65C978.546 451.456 978.175 451.164 977.987 450.998C977.651 450.689 977.353 450.333 977.054 449.946C976.949 449.809 976.839 449.663 976.728 449.514C976.535 449.257 976.336 448.991 976.135 448.744L976.135 448.743C973.423 445.409 969.14 443.806 965.003 443.213C962.933 442.916 960.851 442.838 958.785 442.805C958.239 442.796 957.695 442.791 957.153 442.785C955.634 442.769 954.128 442.754 952.622 442.67L952.619 442.67C951.682 442.624 950.838 442.522 950.213 442.077C949.397 441.494 949.057 440.299 949.307 439.209C949.556 438.131 950.299 437.177 951.215 436.39L951.215 436.39C953.238 434.651 955.925 433.774 958.636 433.597C961.348 433.419 964.087 433.907 966.762 434.63L966.762 434.63C969.34 435.328 971.853 436.264 973.829 437.927C975.782 439.578 977.118 441.883 977.993 444.35Z" fill="#04D361" stroke="#04D361"/>
<path d="M986.397 476.343C986.033 469.038 982.75 461.916 977.443 456.894" stroke="#04D361" stroke-width="0.779" stroke-miterlimit="10"/>
<path d="M974.663 453.061C972.828 452.085 970.75 451.449 968.7 450.874L974.663 453.061ZM974.663 453.061C974.802 453.135 974.927 453.203 975.052 453.277L975.051 453.277L975.063 453.284C975.861 453.735 976.393 454.52 976.979 455.414C977.046 455.517 977.15 455.726 977.29 456.028C977.333 456.119 977.378 456.218 977.425 456.32C977.524 456.536 977.631 456.77 977.74 456.996C977.773 457.065 977.807 457.135 977.841 457.204C975.373 456.528 972.657 456.553 970.281 456.576L970.253 456.576C970.253 456.576 970.253 456.576 970.253 456.576M974.663 453.061L970.253 456.576M970.253 456.576C967.003 456.604 963.752 457.209 960.713 458.381L960.711 458.382C960.308 458.539 959.915 458.703 959.527 458.863C958.049 459.477 956.655 460.055 955.149 460.138C954.65 460.162 954.118 460.091 953.689 459.909C953.265 459.729 952.983 459.462 952.872 459.11C952.696 458.535 953 457.853 953.515 457.166L953.515 457.166M970.253 456.576L953.515 457.166M953.515 457.166L953.516 457.164M953.515 457.166L953.516 457.164M953.516 457.164C954.534 455.793 955.848 454.669 957.205 453.512M953.516 457.164L957.205 453.512M957.205 453.512C958.974 452.008 960.727 450.562 962.83 450.153L957.205 453.512ZM978.511 457.408C978.296 457.019 978.077 456.542 977.882 456.117C977.688 455.696 977.518 455.325 977.397 455.14C976.823 454.264 976.23 453.369 975.309 452.849C975.172 452.766 975.036 452.693 974.899 452.62L978.511 457.408ZM962.83 450.153C964.719 449.786 966.692 450.311 968.7 450.874L962.83 450.153Z" fill="#04D361" stroke="#04D361"/>
<path d="M1208.58 446.671L1208.58 446.672C1207.51 447.733 1206.19 448.346 1204.88 448.858C1204.56 448.984 1204.25 449.103 1203.94 449.22C1202.94 449.593 1201.99 449.952 1201.1 450.458C1198.6 451.89 1196.79 454.472 1195.7 457.246C1195.69 457.279 1195.68 457.312 1195.66 457.345C1195.25 458.391 1194.67 459.893 1194.34 461.367C1194.18 462.127 1194.08 462.857 1194.11 463.497C1194.14 464.139 1194.29 464.649 1194.57 465.014L1194.58 465.016C1195.21 465.851 1196.33 466.025 1197.71 465.796C1199.07 465.571 1200.51 464.983 1201.54 464.547L1201.54 464.547C1201.92 464.388 1202.31 464.221 1202.7 464.051C1204.7 463.177 1206.84 462.249 1209.06 462.153C1211.46 462.047 1213.71 462.914 1215.77 463.74L1215.82 463.763C1217.89 464.594 1219.91 465.403 1222.05 465.412C1224.19 465.421 1226.48 464.399 1227.45 462.506C1227.86 461.705 1228.03 460.806 1228.21 459.832C1228.24 459.655 1228.27 459.476 1228.31 459.294C1228.53 458.152 1228.83 456.932 1229.71 455.962L1229.71 455.962C1230.6 454.968 1231.79 454.568 1232.98 454.401C1233.84 454.281 1234.75 454.277 1235.61 454.273C1235.92 454.272 1236.22 454.27 1236.51 454.263L1236.51 454.263C1238.91 454.21 1241.38 453.563 1243.23 452.006L1243.23 452.005C1245.1 450.45 1246.19 447.872 1245.6 445.728L1245.6 445.728C1245.11 443.953 1243.63 442.687 1242.06 441.419L1242.05 441.418C1239.89 439.665 1237.62 437.992 1235.01 438.168C1234.08 438.235 1233.16 438.534 1232.17 438.856L1232.1 438.88C1231.11 439.204 1230.04 439.545 1228.94 439.585C1227.54 439.634 1226.28 439.207 1225.12 438.615C1224.24 438.165 1223.38 437.603 1222.57 437.068C1222.33 436.906 1222.08 436.746 1221.85 436.592C1219.76 435.246 1217.31 434.266 1215.2 435.28L1208.58 446.671ZM1208.58 446.671C1210.09 445.17 1210.77 443.087 1211.38 441.192M1208.58 446.671L1211.38 441.192M1211.38 441.192C1211.47 440.925 1211.55 440.661 1211.64 440.404M1211.38 441.192L1211.64 440.404M1211.64 440.404C1212.36 438.259 1213.38 436.159 1215.2 435.28L1211.64 440.404Z" fill="#04D361" stroke="#04D361"/>
<path d="M1194.62 465.071C1206.75 454.635 1220.91 447.722 1236.2 444.782" stroke="white" stroke-width="0.7047" stroke-miterlimit="10" stroke-linecap="round" stroke-linejoin="round"/>
<path d="M1206.62 449.019C1206.9 445.577 1206.25 441.988 1207.38 438.729C1209.4 432.921 1216.38 429.89 1218.13 424C1220.23 416.96 1213.83 409.774 1214.94 402.515C1215.41 399.456 1217.17 396.762 1218.26 393.868C1219.35 390.973 1219.64 387.348 1217.51 385.093C1215.29 382.737 1211.25 383.011 1208.6 384.892C1205.96 386.773 1204.44 389.823 1203.2 392.827C1201.96 395.831 1200.88 398.972 1198.79 401.465C1194.99 406.003 1188.15 407.993 1186.07 413.536C1183.96 419.179 1187.96 425.151 1188.67 431.132C1189.21 435.661 1187.83 440.171 1186.6 444.572C1185.38 448.974 1184.29 453.63 1185.41 458.05C1186.91 463.939 1192.21 467.692 1197.29 463.912C1202.31 460.196 1206.1 455.493 1206.62 449.019Z" fill="#04D361"/>
<path d="M1194.07 465.355C1192.05 444.335 1196.67 421.535 1207.45 403.382" stroke="white" stroke-width="1.1364" stroke-miterlimit="10" stroke-linecap="round" stroke-linejoin="round"/>
<path d="M1180.65 457.429C1178.43 454.297 1177.16 450.38 1174.15 447.997C1170.71 445.257 1165.93 445.23 1161.55 444.874C1157.17 444.518 1152.22 443.276 1150.19 439.368C1149.08 437.222 1149.08 434.675 1148.3 432.392C1147.44 429.881 1145.69 427.799 1144.46 425.452C1143.24 423.105 1142.59 420.12 1144.02 417.882C1145.46 415.618 1148.61 414.951 1151.19 415.682C1153.77 416.412 1155.89 418.229 1157.82 420.092C1159.76 421.955 1161.64 423.946 1164.02 425.169C1167.97 427.187 1172.66 426.813 1177.09 426.621C1181.52 426.438 1186.35 426.621 1189.78 429.452C1192.6 431.78 1193.89 435.442 1195.03 438.92C1196.69 443.897 1198.39 448.855 1200 453.85C1201 456.918 1202.9 461.62 1199.7 464.031C1194.08 468.277 1183.89 462.004 1180.65 457.429Z" fill="#04D361"/>
<path d="M1197.93 464.214C1190.89 447.851 1175.99 433.917 1158.15 427.771" stroke="white" stroke-width="0.8174" stroke-miterlimit="10" stroke-linecap="round" stroke-linejoin="round"/>
<path d="M792.359 463.462C794.374 460.458 795.541 456.605 798.249 454.404C801.359 451.893 805.635 452.222 809.574 452.176C813.505 452.14 817.945 451.254 819.805 447.455C820.827 445.373 820.836 442.798 821.556 440.543C822.34 438.069 823.927 436.096 825.049 433.813C826.161 431.531 826.763 428.563 825.514 426.198C824.237 423.806 821.419 422.902 819.103 423.45C816.787 423.998 814.872 425.678 813.131 427.413C811.389 429.148 809.684 431.019 807.532 432.079C803.976 433.832 799.781 433.101 795.805 432.581C791.83 432.069 787.498 431.905 784.407 434.507C781.863 436.653 780.687 440.26 779.62 443.684C778.097 448.588 776.538 453.473 775.051 458.394C774.14 461.426 772.398 466.028 775.243 468.703C780.231 473.433 789.413 467.845 792.359 463.462Z" fill="#04D361"/>
<path d="M776.82 469.05C783.258 453.034 796.717 440.059 812.748 435.156" stroke="white" stroke-width="0.7781" stroke-miterlimit="10" stroke-linecap="round" stroke-linejoin="round"/>
<path d="M767.994 455.052C767.775 451.884 768.286 448.588 767.383 445.584C765.769 440.242 760.17 437.457 758.766 432.042C757.088 425.568 762.213 418.957 761.328 412.273C760.954 409.461 759.541 406.987 758.665 404.32C757.79 401.654 757.562 398.321 759.267 396.248C761.054 394.075 764.282 394.331 766.407 396.066C768.523 397.801 769.744 400.604 770.738 403.361C771.723 406.119 772.599 409.014 774.267 411.306C777.313 415.478 782.793 417.305 784.453 422.409C786.149 427.604 782.939 433.092 782.374 438.598C781.945 442.771 783.048 446.917 784.033 450.962C785.018 455.007 785.884 459.289 784.982 463.362C783.787 468.776 779.538 472.228 775.471 468.758C771.45 465.334 768.413 461.006 767.994 455.052Z" fill="#04D361"/>
<path d="M778.042 470.073C779.656 450.743 775.954 429.769 767.328 413.068" stroke="white" stroke-width="0.9754" stroke-miterlimit="10" stroke-linecap="round" stroke-linejoin="round"/>
<path d="M716.2 439.594C715.461 442.762 716.993 446.588 719.41 448.962C721.826 451.345 724.963 452.45 727.945 452.715L735.75 455.29L736.144 454.982C736.144 454.982 736.144 454.982 736.144 454.982C735.083 453.624 733.691 452.998 732.25 452.679C731.211 452.449 730.102 452.371 729.067 452.299C728.696 452.273 728.335 452.248 727.99 452.217L727.989 452.217C725.094 451.96 722.076 450.889 719.761 448.606L719.76 448.605C717.432 446.318 715.998 442.662 716.687 439.707M716.2 439.594L716.687 439.708C716.687 439.708 716.687 439.708 716.687 439.707M716.2 439.594L716.687 439.707C716.687 439.707 716.687 439.707 716.687 439.707M716.2 439.594C716.811 436.991 718.735 435.275 720.568 433.713C723.112 431.54 725.984 429.266 729.404 429.75C730.608 429.919 731.789 430.423 732.968 430.927C734.217 431.46 735.464 431.993 736.735 432.124M716.687 439.707C717.256 437.286 719.047 435.665 720.892 434.094L720.893 434.093C723.468 431.894 726.171 429.798 729.334 430.245L729.335 430.245C730.472 430.405 731.598 430.886 732.8 431.399L732.877 431.431C734.079 431.945 735.36 432.485 736.684 432.622M736.684 432.622L736.735 432.124M736.684 432.622C738.356 432.795 739.862 432.318 741.244 431.609C742.292 431.072 743.303 430.382 744.267 429.723C744.562 429.523 744.851 429.325 745.137 429.135L745.138 429.134C747.618 427.475 750.559 426.325 753.176 427.879M736.684 432.622C736.684 432.622 736.684 432.622 736.684 432.622L736.735 432.124M736.735 432.124C739.451 432.406 741.749 430.837 743.967 429.323C744.266 429.119 744.563 428.916 744.86 428.718C747.358 427.048 750.541 425.733 753.431 427.449M753.176 427.879C753.175 427.879 753.175 427.879 753.175 427.879L753.431 427.449M753.176 427.879C754.306 428.554 755.207 429.636 755.943 430.94C756.679 432.243 757.235 433.738 757.686 435.203L757.686 435.204C757.8 435.568 757.911 435.939 758.024 436.313C758.812 438.923 759.656 441.719 761.47 443.811M753.176 427.879C753.176 427.879 753.176 427.879 753.176 427.879L753.431 427.449M753.431 427.449C755.893 428.919 757.252 432.097 758.164 435.055L761.47 443.811M761.47 443.811C762.758 445.303 764.34 446.222 765.927 447.015C766.315 447.209 766.701 447.394 767.083 447.578C768.288 448.156 769.456 448.718 770.544 449.473L770.545 449.474C773.646 451.62 775.913 455.293 777.298 459.165C777.316 459.216 777.335 459.268 777.353 459.321C777.866 460.759 778.607 462.839 779.036 464.867C779.258 465.917 779.391 466.934 779.371 467.825C779.35 468.722 779.173 469.441 778.826 469.944L778.824 469.946C778.065 471.054 776.711 471.2 775.027 470.783C773.367 470.372 771.613 469.461 770.353 468.792L770.353 468.791C769.9 468.551 769.442 468.301 768.98 468.048C767.98 467.501 766.96 466.943 765.94 466.461C764.44 465.75 762.885 465.175 761.275 464.992L761.275 464.992C758.391 464.666 755.701 465.658 753.24 466.622L753.167 466.65C750.699 467.617 748.292 468.56 745.703 468.396C743.11 468.232 740.254 466.675 738.985 463.937L761.47 443.811ZM761.47 443.811L761.848 443.483L761.469 443.81C761.469 443.81 761.47 443.811 761.47 443.811ZM770.118 469.233C769.654 468.987 769.189 468.732 768.723 468.477C766.271 467.136 763.793 465.781 761.218 465.489C758.474 465.179 755.893 466.119 753.422 467.087L753.303 467.134C750.87 468.087 748.372 469.066 745.671 468.895C742.927 468.722 739.89 467.078 738.531 464.147L770.118 469.233ZM770.118 469.233C772.626 470.566 777.34 472.995 779.237 470.228L770.118 469.233Z" fill="#04D361" stroke="#04D361"/>
<path d="M778.699 469.854C763.827 454.824 746.583 444.397 728.091 439.247" stroke="white" stroke-width="0.8986" stroke-miterlimit="10" stroke-linecap="round" stroke-linejoin="round"/>
<path d="M1204.85 197.597C1204.85 200.491 1202.5 202.838 1199.61 202.838C1196.72 202.838 1194.38 200.491 1194.38 197.597C1194.38 194.702 1196.72 192.355 1199.61 192.355C1202.49 192.355 1204.85 194.702 1204.85 197.597Z" stroke="#04D361" stroke-width="2" stroke-miterlimit="10" stroke-linecap="round" stroke-linejoin="round"/>
<path d="M1203.4 201.212L1207.09 204.919" stroke="#04D361" stroke-width="2" stroke-miterlimit="10" stroke-linecap="round" stroke-linejoin="round"/>
<path d="M1000.07 127L1005.57 132.514" stroke="#04D361" stroke-width="2" stroke-miterlimit="10" stroke-linecap="round" stroke-linejoin="round"/>
<path d="M1005.57 127L1000.07 132.514" stroke="#04D361" stroke-width="2" stroke-miterlimit="10" stroke-linecap="round" stroke-linejoin="round"/>
<path d="M1078.99 444.459L1084.5 449.974" stroke="#04D361" stroke-width="2" stroke-miterlimit="10" stroke-linecap="round" stroke-linejoin="round"/>
<path d="M1084.5 444.459L1078.99 449.974" stroke="#04D361" stroke-width="2" stroke-miterlimit="10" stroke-linecap="round" stroke-linejoin="round"/>
<path d="M729.535 371.386V379.184" stroke="#04D361" stroke-width="2" stroke-miterlimit="10" stroke-linecap="round" stroke-linejoin="round"/>
<path d="M733.439 375.285H725.642" stroke="#04D361" stroke-width="2" stroke-miterlimit="10" stroke-linecap="round" stroke-linejoin="round"/>
<path d="M712.599 311.515C712.599 314.126 710.484 316.254 707.867 316.254C705.259 316.254 703.134 314.136 703.134 311.515C703.134 308.903 705.25 306.776 707.867 306.776C710.484 306.785 712.599 308.903 712.599 311.515Z" stroke="#04D361" stroke-width="2" stroke-miterlimit="10" stroke-linecap="round" stroke-linejoin="round"/>
<path d="M909.027 426.134C909.027 428.746 906.911 430.873 904.294 430.873C901.687 430.873 899.562 428.755 899.562 426.134C899.562 423.523 901.677 421.395 904.294 421.395C906.911 421.404 909.027 423.523 909.027 426.134Z" stroke="#04D361" stroke-width="2" stroke-miterlimit="10" stroke-linecap="round" stroke-linejoin="round"/>
<path d="M1221.34 340.786C1221.34 343.398 1219.22 345.525 1216.61 345.525C1214 345.525 1211.87 343.407 1211.87 340.786C1211.87 338.175 1213.99 336.047 1216.61 336.047C1219.22 336.056 1221.34 338.175 1221.34 340.786Z" stroke="#04D361" stroke-width="2" stroke-miterlimit="10" stroke-linecap="round" stroke-linejoin="round"/>
<path d="M683.928 228.464C683.928 229.137 683.384 229.681 682.714 229.681C682.044 229.681 681.5 229.137 681.5 228.464C681.5 227.792 682.044 227.248 682.714 227.248C683.384 227.248 683.928 227.792 683.928 228.464Z" fill="#9871F5" stroke="#9871F5"/>
<path d="M695.901 228.464C695.901 229.137 695.357 229.681 694.687 229.681C694.017 229.681 693.473 229.137 693.473 228.464C693.473 227.792 694.017 227.248 694.687 227.248C695.357 227.248 695.901 227.792 695.901 228.464Z" fill="#9871F5" stroke="#9871F5"/>
<path d="M707.864 228.464C707.864 229.137 707.32 229.681 706.65 229.681C705.981 229.681 705.436 229.137 705.436 228.464C705.436 227.792 705.981 227.248 706.65 227.248C707.32 227.248 707.864 227.792 707.864 228.464Z" fill="#9871F5" stroke="#9871F5"/>
<path d="M719.837 228.464C719.837 229.137 719.293 229.681 718.623 229.681C717.953 229.681 717.409 229.137 717.409 228.464C717.409 227.792 717.953 227.248 718.623 227.248C719.293 227.248 719.837 227.792 719.837 228.464Z" fill="#9871F5" stroke="#9871F5"/>
<path d="M731.801 228.464C731.801 229.137 731.256 229.681 730.587 229.681C729.917 229.681 729.373 229.137 729.373 228.464C729.373 227.792 729.917 227.248 730.587 227.248C731.256 227.248 731.801 227.792 731.801 228.464Z" fill="#9871F5" stroke="#9871F5"/>
<path d="M743.773 228.464C743.773 229.137 743.229 229.681 742.559 229.681C741.889 229.681 741.345 229.137 741.345 228.464C741.345 227.792 741.889 227.248 742.559 227.248C743.229 227.248 743.773 227.792 743.773 228.464Z" fill="#9871F5" stroke="#9871F5"/>
<path d="M683.928 240.444C683.928 241.117 683.384 241.661 682.714 241.661C682.044 241.661 681.5 241.117 681.5 240.444C681.5 239.772 682.044 239.228 682.714 239.228C683.384 239.228 683.928 239.772 683.928 240.444Z" fill="#9871F5" stroke="#9871F5"/>
<path d="M695.901 240.444C695.901 241.117 695.357 241.661 694.687 241.661C694.017 241.661 693.473 241.117 693.473 240.444C693.473 239.772 694.017 239.228 694.687 239.228C695.357 239.228 695.901 239.772 695.901 240.444Z" fill="#9871F5" stroke="#9871F5"/>
<path d="M707.864 240.444C707.864 241.117 707.32 241.661 706.65 241.661C705.981 241.661 705.436 241.117 705.436 240.444C705.436 239.772 705.981 239.228 706.65 239.228C707.32 239.228 707.864 239.772 707.864 240.444Z" fill="#9871F5" stroke="#9871F5"/>
<path d="M719.837 240.444C719.837 241.117 719.293 241.661 718.623 241.661C717.953 241.661 717.409 241.117 717.409 240.444C717.409 239.772 717.953 239.228 718.623 239.228C719.293 239.228 719.837 239.772 719.837 240.444Z" fill="#9871F5" stroke="#9871F5"/>
<path d="M731.801 240.444C731.801 241.117 731.256 241.661 730.587 241.661C729.917 241.661 729.373 241.117 729.373 240.444C729.373 239.772 729.917 239.228 730.587 239.228C731.256 239.228 731.801 239.772 731.801 240.444Z" fill="#9871F5" stroke="#9871F5"/>
<path d="M743.773 240.444C743.773 241.117 743.229 241.661 742.559 241.661C741.889 241.661 741.345 241.117 741.345 240.444C741.345 239.772 741.889 239.228 742.559 239.228C743.229 239.228 743.773 239.772 743.773 240.444Z" fill="#9871F5" stroke="#9871F5"/>
<path d="M683.928 252.434C683.928 253.106 683.384 253.65 682.714 253.65C682.044 253.65 681.5 253.106 681.5 252.434C681.5 251.761 682.044 251.217 682.714 251.217C683.384 251.217 683.928 251.761 683.928 252.434Z" fill="#9871F5" stroke="#9871F5"/>
<path d="M695.901 252.434C695.901 253.106 695.357 253.65 694.687 253.65C694.017 253.65 693.473 253.106 693.473 252.434C693.473 251.761 694.017 251.217 694.687 251.217C695.357 251.217 695.901 251.761 695.901 252.434Z" fill="#9871F5" stroke="#9871F5"/>
<path d="M707.864 252.434C707.864 253.106 707.32 253.65 706.65 253.65C705.981 253.65 705.436 253.106 705.436 252.434C705.436 251.761 705.981 251.217 706.65 251.217C707.32 251.217 707.864 251.761 707.864 252.434Z" fill="#9871F5" stroke="#9871F5"/>
<path d="M719.837 252.434C719.837 253.106 719.293 253.65 718.623 253.65C717.953 253.65 717.409 253.106 717.409 252.434C717.409 251.761 717.953 251.217 718.623 251.217C719.293 251.217 719.837 251.761 719.837 252.434Z" fill="#9871F5" stroke="#9871F5"/>
<path d="M731.801 252.434C731.801 253.106 731.256 253.65 730.587 253.65C729.917 253.65 729.373 253.106 729.373 252.434C729.373 251.761 729.917 251.217 730.587 251.217C731.256 251.217 731.801 251.761 731.801 252.434Z" fill="#9871F5" stroke="#9871F5"/>
<path d="M743.773 252.434C743.773 253.106 743.229 253.65 742.559 253.65C741.889 253.65 741.345 253.106 741.345 252.434C741.345 251.761 741.889 251.217 742.559 251.217C743.229 251.217 743.773 251.761 743.773 252.434Z" fill="#9871F5" stroke="#9871F5"/>
<path d="M683.928 264.414C683.928 265.086 683.384 265.63 682.714 265.63C682.044 265.63 681.5 265.086 681.5 264.414C681.5 263.741 682.044 263.197 682.714 263.197C683.384 263.197 683.928 263.741 683.928 264.414Z" fill="#9871F5" stroke="#9871F5"/>
<path d="M695.901 264.414C695.901 265.086 695.357 265.63 694.687 265.63C694.017 265.63 693.473 265.086 693.473 264.414C693.473 263.741 694.017 263.197 694.687 263.197C695.357 263.197 695.901 263.741 695.901 264.414Z" fill="#9871F5" stroke="#9871F5"/>
<path d="M707.864 264.414C707.864 265.086 707.32 265.63 706.65 265.63C705.981 265.63 705.436 265.086 705.436 264.414C705.436 263.741 705.981 263.197 706.65 263.197C707.32 263.197 707.864 263.741 707.864 264.414Z" fill="#9871F5" stroke="#9871F5"/>
<path d="M719.837 264.414C719.837 265.086 719.293 265.63 718.623 265.63C717.953 265.63 717.409 265.086 717.409 264.414C717.409 263.741 717.953 263.197 718.623 263.197C719.293 263.197 719.837 263.741 719.837 264.414Z" fill="#9871F5" stroke="#9871F5"/>
<path d="M731.801 264.414C731.801 265.086 731.256 265.63 730.587 265.63C729.917 265.63 729.373 265.086 729.373 264.414C729.373 263.741 729.917 263.197 730.587 263.197C731.256 263.197 731.801 263.741 731.801 264.414Z" fill="#9871F5" stroke="#9871F5"/>
<path d="M743.773 264.414C743.773 265.086 743.229 265.63 742.559 265.63C741.889 265.63 741.345 265.086 741.345 264.414C741.345 263.741 741.889 263.197 742.559 263.197C743.229 263.197 743.773 263.741 743.773 264.414Z" fill="#9871F5" stroke="#9871F5"/>
<path d="M868.624 454.189C868.624 454.861 868.08 455.405 867.41 455.405C866.74 455.405 866.196 454.861 866.196 454.189C866.196 453.517 866.74 452.973 867.41 452.973C868.08 452.973 868.624 453.517 868.624 454.189Z" fill="#9871F5" stroke="#9871F5"/>
<path d="M880.596 454.189C880.596 454.861 880.052 455.405 879.382 455.405C878.713 455.405 878.168 454.861 878.168 454.189C878.168 453.517 878.713 452.973 879.382 452.973C880.052 452.973 880.596 453.517 880.596 454.189Z" fill="#9871F5" stroke="#9871F5"/>
<path d="M892.56 454.189C892.56 454.861 892.016 455.405 891.346 455.405C890.676 455.405 890.132 454.861 890.132 454.189C890.132 453.517 890.676 452.973 891.346 452.973C892.016 452.973 892.56 453.517 892.56 454.189Z" fill="#9871F5" stroke="#9871F5"/>
<path d="M904.533 454.189C904.533 454.861 903.988 455.405 903.319 455.405C902.649 455.405 902.105 454.861 902.105 454.189C902.105 453.517 902.649 452.973 903.319 452.973C903.988 452.973 904.533 453.517 904.533 454.189Z" fill="#9871F5" stroke="#9871F5"/>
<path d="M916.496 454.189C916.496 454.861 915.952 455.405 915.282 455.405C914.612 455.405 914.068 454.861 914.068 454.189C914.068 453.517 914.612 452.973 915.282 452.973C915.952 452.973 916.496 453.517 916.496 454.189Z" fill="#9871F5" stroke="#9871F5"/>
<path d="M868.624 466.178C868.624 466.851 868.08 467.395 867.41 467.395C866.74 467.395 866.196 466.851 866.196 466.178C866.196 465.506 866.74 464.962 867.41 464.962C868.08 464.962 868.624 465.506 868.624 466.178Z" fill="#9871F5" stroke="#9871F5"/>
<path d="M880.596 466.178C880.596 466.851 880.052 467.395 879.382 467.395C878.713 467.395 878.168 466.851 878.168 466.178C878.168 465.506 878.713 464.962 879.382 464.962C880.052 464.962 880.596 465.506 880.596 466.178Z" fill="#9871F5" stroke="#9871F5"/>
<path d="M892.56 466.178C892.56 466.851 892.016 467.395 891.346 467.395C890.676 467.395 890.132 466.851 890.132 466.178C890.132 465.506 890.676 464.962 891.346 464.962C892.016 464.962 892.56 465.506 892.56 466.178Z" fill="#9871F5" stroke="#9871F5"/>
<path d="M904.533 466.178C904.533 466.851 903.988 467.395 903.319 467.395C902.649 467.395 902.105 466.851 902.105 466.178C902.105 465.506 902.649 464.962 903.319 464.962C903.988 464.962 904.533 465.506 904.533 466.178Z" fill="#9871F5" stroke="#9871F5"/>
<path d="M916.496 466.178C916.496 466.851 915.952 467.395 915.282 467.395C914.612 467.395 914.068 466.851 914.068 466.178C914.068 465.506 914.612 464.962 915.282 464.962C915.952 464.962 916.496 465.506 916.496 466.178Z" fill="#9871F5" stroke="#9871F5"/>
<path d="M1171.93 154.397C1171.93 155.07 1171.39 155.614 1170.72 155.614C1170.05 155.614 1169.5 155.07 1169.5 154.397C1169.5 153.725 1170.05 153.181 1170.72 153.181C1171.39 153.181 1171.93 153.725 1171.93 154.397Z" fill="#9871F5" stroke="#9871F5"/>
<path d="M1183.89 154.397C1183.89 155.07 1183.35 155.614 1182.68 155.614C1182.01 155.614 1181.47 155.07 1181.47 154.397C1181.47 153.725 1182.01 153.181 1182.68 153.181C1183.35 153.181 1183.89 153.725 1183.89 154.397Z" fill="#9871F5" stroke="#9871F5"/>
<path d="M1195.87 154.397C1195.87 155.07 1195.32 155.614 1194.65 155.614C1193.98 155.614 1193.44 155.07 1193.44 154.397C1193.44 153.725 1193.98 153.181 1194.65 153.181C1195.32 153.181 1195.87 153.725 1195.87 154.397Z" fill="#9871F5" stroke="#9871F5"/>
<path d="M1171.93 166.387C1171.93 167.059 1171.39 167.603 1170.72 167.603C1170.05 167.603 1169.5 167.059 1169.5 166.387C1169.5 165.714 1170.05 165.17 1170.72 165.17C1171.39 165.17 1171.93 165.714 1171.93 166.387Z" fill="#9871F5" stroke="#9871F5"/>
<path d="M1183.89 166.387C1183.89 167.059 1183.35 167.603 1182.68 167.603C1182.01 167.603 1181.47 167.059 1181.47 166.387C1181.47 165.714 1182.01 165.17 1182.68 165.17C1183.35 165.17 1183.89 165.714 1183.89 166.387Z" fill="#9871F5" stroke="#9871F5"/>
<path d="M1195.87 166.387C1195.87 167.059 1195.32 167.603 1194.65 167.603C1193.98 167.603 1193.44 167.059 1193.44 166.387C1193.44 165.714 1193.98 165.17 1194.65 165.17C1195.32 165.17 1195.87 165.714 1195.87 166.387Z" fill="#9871F5" stroke="#9871F5"/>
<path d="M858.582 131.716C858.582 132.389 858.038 132.933 857.368 132.933C856.698 132.933 856.154 132.389 856.154 131.716C856.154 131.044 856.698 130.5 857.368 130.5C858.038 130.5 858.582 131.044 858.582 131.716Z" fill="#9871F5" stroke="#9871F5"/>
<path d="M870.546 131.716C870.546 132.389 870.002 132.933 869.332 132.933C868.662 132.933 868.118 132.389 868.118 131.716C868.118 131.044 868.662 130.5 869.332 130.5C870.002 130.5 870.546 131.044 870.546 131.716Z" fill="#9871F5" stroke="#9871F5"/>
<path d="M882.518 131.716C882.518 132.389 881.974 132.933 881.304 132.933C880.635 132.933 880.09 132.389 880.09 131.716C880.09 131.044 880.635 130.5 881.304 130.5C881.974 130.5 882.518 131.044 882.518 131.716Z" fill="#9871F5" stroke="#9871F5"/>
<path d="M858.582 143.706C858.582 144.378 858.038 144.922 857.368 144.922C856.698 144.922 856.154 144.378 856.154 143.706C856.154 143.033 856.698 142.489 857.368 142.489C858.038 142.489 858.582 143.033 858.582 143.706Z" fill="#9871F5" stroke="#9871F5"/>
<path d="M870.546 143.706C870.546 144.378 870.001 144.922 869.332 144.922C868.662 144.922 868.118 144.378 868.118 143.706C868.118 143.033 868.662 142.489 869.332 142.489C870.002 142.489 870.546 143.033 870.546 143.706Z" fill="#9871F5" stroke="#9871F5"/>
<path d="M882.518 143.706C882.518 144.378 881.974 144.922 881.304 144.922C880.635 144.922 880.09 144.378 880.09 143.706C880.09 143.033 880.635 142.489 881.304 142.489C881.974 142.489 882.518 143.033 882.518 143.706Z" fill="#9871F5" stroke="#9871F5"/>
<path d="M1279.5 316.4C1279.5 317.072 1278.96 317.616 1278.29 317.616C1277.62 317.616 1277.07 317.072 1277.07 316.4C1277.07 315.728 1277.62 315.184 1278.29 315.184C1278.96 315.184 1279.5 315.728 1279.5 316.4Z" fill="#9871F5" stroke="#9871F5"/>
<path d="M1279.5 328.389C1279.5 329.062 1278.96 329.606 1278.29 329.606C1277.62 329.606 1277.07 329.062 1277.07 328.389C1277.07 327.717 1277.62 327.173 1278.29 327.173C1278.96 327.173 1279.5 327.717 1279.5 328.389Z" fill="#9871F5" stroke="#9871F5"/>
<path d="M1279.5 340.369C1279.5 341.042 1278.96 341.586 1278.29 341.586C1277.62 341.586 1277.07 341.042 1277.07 340.369C1277.07 339.697 1277.62 339.153 1278.29 339.153C1278.96 339.153 1279.5 339.697 1279.5 340.369Z" fill="#9871F5" stroke="#9871F5"/>
<path d="M1279.5 352.358C1279.5 353.03 1278.96 353.574 1278.29 353.574C1277.62 353.574 1277.07 353.03 1277.07 352.358C1277.07 351.686 1277.62 351.142 1278.29 351.142C1278.96 351.142 1279.5 351.686 1279.5 352.358Z" fill="#9871F5" stroke="#9871F5"/>
<path d="M1279.5 364.338C1279.5 365.01 1278.96 365.554 1278.29 365.554C1277.62 365.554 1277.07 365.01 1277.07 364.338C1277.07 363.666 1277.62 363.122 1278.29 363.122C1278.96 363.122 1279.5 363.666 1279.5 364.338Z" fill="#9871F5" stroke="#9871F5"/>
<path d="M1279.5 376.327C1279.5 377 1278.96 377.544 1278.29 377.544C1277.62 377.544 1277.07 377 1277.07 376.327C1277.07 375.655 1277.62 375.111 1278.29 375.111C1278.96 375.111 1279.5 375.655 1279.5 376.327Z" fill="#9871F5" stroke="#9871F5"/>
<path d="M1279.5 388.307C1279.5 388.98 1278.96 389.524 1278.29 389.524C1277.62 389.524 1277.07 388.98 1277.07 388.307C1277.07 387.635 1277.62 387.091 1278.29 387.091C1278.96 387.091 1279.5 387.635 1279.5 388.307Z" fill="#9871F5" stroke="#9871F5"/>
<path d="M1267.53 316.4C1267.53 317.072 1266.98 317.616 1266.31 317.616C1265.64 317.616 1265.1 317.072 1265.1 316.4C1265.1 315.728 1265.64 315.184 1266.31 315.184C1266.98 315.184 1267.53 315.728 1267.53 316.4Z" fill="#9871F5" stroke="#9871F5"/>
<path d="M1267.53 328.389C1267.53 329.062 1266.98 329.606 1266.31 329.606C1265.64 329.606 1265.1 329.062 1265.1 328.389C1265.1 327.717 1265.64 327.173 1266.31 327.173C1266.98 327.173 1267.53 327.717 1267.53 328.389Z" fill="#9871F5" stroke="#9871F5"/>
<path d="M1267.53 340.369C1267.53 341.042 1266.98 341.586 1266.31 341.586C1265.64 341.586 1265.1 341.042 1265.1 340.369C1265.1 339.697 1265.64 339.153 1266.31 339.153C1266.98 339.153 1267.53 339.697 1267.53 340.369Z" fill="#9871F5" stroke="#9871F5"/>
<path d="M1267.53 352.358C1267.53 353.03 1266.98 353.574 1266.31 353.574C1265.64 353.574 1265.1 353.03 1265.1 352.358C1265.1 351.686 1265.64 351.142 1266.31 351.142C1266.98 351.142 1267.53 351.686 1267.53 352.358Z" fill="#9871F5" stroke="#9871F5"/>
<path d="M1267.53 364.338C1267.53 365.01 1266.98 365.554 1266.31 365.554C1265.64 365.554 1265.1 365.01 1265.1 364.338C1265.1 363.666 1265.64 363.122 1266.31 363.122C1266.98 363.122 1267.53 363.666 1267.53 364.338Z" fill="#9871F5" stroke="#9871F5"/>
<path d="M1267.53 376.327C1267.53 377 1266.98 377.544 1266.31 377.544C1265.64 377.544 1265.1 377 1265.1 376.327C1265.1 375.655 1265.64 375.111 1266.31 375.111C1266.98 375.111 1267.53 375.655 1267.53 376.327Z" fill="#9871F5" stroke="#9871F5"/>
<path d="M1267.53 388.307C1267.53 388.98 1266.98 389.524 1266.31 389.524C1265.64 389.524 1265.1 388.98 1265.1 388.307C1265.1 387.635 1265.64 387.091 1266.31 387.091C1266.98 387.091 1267.53 387.635 1267.53 388.307Z" fill="#9871F5" stroke="#9871F5"/>
<path d="M1255.56 316.4C1255.56 317.072 1255.02 317.616 1254.35 317.616C1253.68 317.616 1253.14 317.072 1253.14 316.4C1253.14 315.728 1253.68 315.184 1254.35 315.184C1255.02 315.184 1255.56 315.728 1255.56 316.4Z" fill="#9871F5" stroke="#9871F5"/>
<path d="M1255.56 328.389C1255.56 329.062 1255.02 329.606 1254.35 329.606C1253.68 329.606 1253.14 329.062 1253.14 328.389C1253.14 327.717 1253.68 327.173 1254.35 327.173C1255.02 327.173 1255.56 327.717 1255.56 328.389Z" fill="#9871F5" stroke="#9871F5"/>
<path d="M1255.56 340.369C1255.56 341.042 1255.02 341.586 1254.35 341.586C1253.68 341.586 1253.14 341.042 1253.14 340.369C1253.14 339.697 1253.68 339.153 1254.35 339.153C1255.02 339.153 1255.56 339.697 1255.56 340.369Z" fill="#9871F5" stroke="#9871F5"/>
<path d="M1255.56 352.358C1255.56 353.03 1255.02 353.574 1254.35 353.574C1253.68 353.574 1253.14 353.03 1253.14 352.358C1253.14 351.686 1253.68 351.142 1254.35 351.142C1255.02 351.142 1255.56 351.686 1255.56 352.358Z" fill="#9871F5" stroke="#9871F5"/>
<path d="M1255.56 364.338C1255.56 365.01 1255.02 365.554 1254.35 365.554C1253.68 365.554 1253.14 365.01 1253.14 364.338C1253.14 363.666 1253.68 363.122 1254.35 363.122C1255.02 363.122 1255.56 363.666 1255.56 364.338Z" fill="#9871F5" stroke="#9871F5"/>
<path d="M1255.56 376.327C1255.56 377 1255.02 377.544 1254.35 377.544C1253.68 377.544 1253.14 377 1253.14 376.327C1253.14 375.655 1253.68 375.111 1254.35 375.111C1255.02 375.111 1255.56 375.655 1255.56 376.327Z" fill="#9871F5" stroke="#9871F5"/>
<path d="M1255.56 388.307C1255.56 388.98 1255.02 389.524 1254.35 389.524C1253.68 389.524 1253.14 388.98 1253.14 388.307C1253.14 387.635 1253.68 387.091 1254.35 387.091C1255.02 387.091 1255.56 387.635 1255.56 388.307Z" fill="#9871F5" stroke="#9871F5"/>
<path d="M1243.59 316.4C1243.59 317.072 1243.05 317.616 1242.38 317.616C1241.71 317.616 1241.16 317.072 1241.16 316.4C1241.16 315.728 1241.71 315.184 1242.38 315.184C1243.05 315.184 1243.59 315.728 1243.59 316.4Z" fill="#9871F5" stroke="#9871F5"/>
<path d="M1243.59 328.389C1243.59 329.062 1243.05 329.606 1242.38 329.606C1241.71 329.606 1241.16 329.062 1241.16 328.389C1241.16 327.717 1241.71 327.173 1242.38 327.173C1243.05 327.173 1243.59 327.717 1243.59 328.389Z" fill="#9871F5" stroke="#9871F5"/>
<path d="M1243.59 340.369C1243.59 341.042 1243.05 341.586 1242.38 341.586C1241.71 341.586 1241.16 341.042 1241.16 340.369C1241.16 339.697 1241.71 339.153 1242.38 339.153C1243.05 339.153 1243.59 339.697 1243.59 340.369Z" fill="#9871F5" stroke="#9871F5"/>
<path d="M1243.59 352.358C1243.59 353.03 1243.05 353.574 1242.38 353.574C1241.71 353.574 1241.16 353.03 1241.16 352.358C1241.16 351.686 1241.71 351.142 1242.38 351.142C1243.05 351.142 1243.59 351.686 1243.59 352.358Z" fill="#9871F5" stroke="#9871F5"/>
<path d="M1243.59 364.338C1243.59 365.01 1243.05 365.554 1242.38 365.554C1241.71 365.554 1241.16 365.01 1241.16 364.338C1241.16 363.666 1241.71 363.122 1242.38 363.122C1243.05 363.122 1243.59 363.666 1243.59 364.338Z" fill="#9871F5" stroke="#9871F5"/>
<path d="M1243.59 376.327C1243.59 377 1243.05 377.544 1242.38 377.544C1241.71 377.544 1241.16 377 1241.16 376.327C1241.16 375.655 1241.71 375.111 1242.38 375.111C1243.05 375.111 1243.59 375.655 1243.59 376.327Z" fill="#9871F5" stroke="#9871F5"/>
<path d="M1243.59 388.307C1243.59 388.98 1243.05 389.524 1242.38 389.524C1241.71 389.524 1241.16 388.98 1241.16 388.307C1241.16 387.635 1241.71 387.091 1242.38 387.091C1243.05 387.091 1243.59 387.635 1243.59 388.307Z" fill="#9871F5" stroke="#9871F5"/>
<path d="M1140.05 387.842H829.287C823.676 387.842 819.118 383.248 819.118 377.574V186.031C819.118 180.357 823.676 175.762 829.287 175.762H1140.06C1145.67 175.762 1150.23 180.357 1150.23 186.031V377.573C1150.22 383.248 1145.66 387.842 1140.05 387.842Z" fill="#04D361" stroke="#04D361"/>
<path d="M1139.6 379.268H829.733C824.927 379.268 821.025 375.36 821.025 370.548V186.073C821.025 181.261 824.927 177.353 829.733 177.353H1139.6C1144.41 177.353 1148.31 181.261 1148.31 186.073V370.548C1148.31 375.369 1144.41 379.268 1139.6 379.268Z" fill="white"/>
<path d="M1037.69 194.611V324.765C1037.69 328.691 1034.52 331.869 1030.6 331.869H834.894C833.135 331.869 831.521 331.23 830.28 330.161C828.767 328.856 827.8 326.929 827.8 324.765V194.611C827.8 190.684 830.983 187.507 834.894 187.507H1030.6C1032.36 187.507 1033.98 188.146 1035.21 189.214C1036.73 190.52 1037.69 192.447 1037.69 194.611Z" fill="#E6E6F0"/>
<path d="M1134.5 243.142H1053.49C1049.57 243.142 1046.4 239.965 1046.4 236.038V194.611C1046.4 190.684 1049.57 187.507 1053.49 187.507H1134.5C1138.42 187.507 1141.59 190.684 1141.59 194.611V236.038C1141.59 239.965 1138.41 243.142 1134.5 243.142Z" fill="#E6E6F0"/>
<path d="M1134.5 308.636H1053.49C1049.57 308.636 1046.4 305.458 1046.4 301.532V260.104C1046.4 256.178 1049.57 253 1053.49 253H1134.5C1138.42 253 1141.59 256.178 1141.59 260.104V301.532C1141.59 305.458 1138.41 308.636 1134.5 308.636Z" fill="#E6E6F0"/>
<path d="M1134.5 370.691H1053.49C1049.57 370.691 1046.4 367.513 1046.4 363.587V326.104C1046.4 322.178 1049.57 319 1053.49 319H1134.5C1138.42 319 1141.59 322.178 1141.59 326.104V363.587C1141.59 367.513 1138.41 370.691 1134.5 370.691Z" fill="#E6E6F0"/>
<path d="M934.825 345.839H830.381C828.958 345.839 827.809 344.689 827.809 343.264C827.809 341.84 828.958 340.689 830.381 340.689H934.825C936.247 340.689 937.396 341.84 937.396 343.264C937.396 344.68 936.247 345.839 934.825 345.839Z" fill="#E6E6F0"/>
<path d="M940.853 370H830.485C828.981 370 827.767 368.884 827.767 367.501V357.499C827.767 356.116 828.981 355 830.485 355H940.853C942.357 355 943.571 356.116 943.571 357.499V367.501C943.571 368.884 942.357 370 940.853 370Z" fill="#E6E6F0"/>
<path d="M1012.15 345.839H1035.12C1036.54 345.839 1037.69 344.689 1037.69 343.264C1037.69 341.84 1036.54 340.689 1035.12 340.689H1012.15C1010.73 340.689 1009.58 341.84 1009.58 343.264C1009.58 344.68 1010.73 345.839 1012.15 345.839Z" fill="#E6E6F0"/>
<path d="M973.187 345.839H996.156C997.579 345.839 998.728 344.689 998.728 343.264C998.728 341.84 997.579 340.689 996.156 340.689H973.187C971.764 340.689 970.615 341.84 970.615 343.264C970.606 344.68 971.764 345.839 973.187 345.839Z" fill="#E6E6F0"/>
<path d="M989.564 370.11H1035.12C1036.54 370.11 1037.69 368.959 1037.69 367.535V357.226C1037.69 355.801 1036.54 354.651 1035.12 354.651H989.564C988.141 354.651 986.992 355.801 986.992 357.226V367.535C986.992 368.959 988.141 370.11 989.564 370.11Z" fill="#E6E6F0"/>
<g opacity="0.24">
<path d="M1093.7 230.14C1101.63 230.14 1108.06 223.701 1108.06 215.758C1108.06 207.816 1101.63 201.377 1093.7 201.377C1085.77 201.377 1079.34 207.816 1079.34 215.758C1079.34 223.701 1085.77 230.14 1093.7 230.14Z" fill="#E6E6F0" stroke="#6842C2" stroke-width="2" stroke-miterlimit="10"/>
<path d="M1099.59 214.341L1091.39 209.601C1090.49 209.081 1089.37 209.729 1089.37 210.77V220.248C1089.37 221.289 1090.49 221.938 1091.39 221.417L1099.59 216.678C1100.49 216.158 1100.49 214.861 1099.59 214.341Z" fill="#E6E6F0" stroke="#6842C2" stroke-width="2" stroke-miterlimit="10"/>
</g>
<g opacity="0.24">
<path d="M1093.7 294.763C1101.63 294.763 1108.06 288.324 1108.06 280.381C1108.06 272.439 1101.63 266 1093.7 266C1085.77 266 1079.34 272.439 1079.34 280.381C1079.34 288.324 1085.77 294.763 1093.7 294.763Z" fill="#E6E6F0" stroke="#6842C2" stroke-width="2" stroke-miterlimit="10"/>
<path d="M1099.59 278.964L1091.39 274.225C1090.49 273.704 1089.37 274.352 1089.37 275.393V284.871C1089.37 285.912 1090.49 286.561 1091.39 286.04L1099.59 281.301C1100.49 280.781 1100.49 279.484 1099.59 278.964Z" fill="#E6E6F0" stroke="#6842C2" stroke-width="2" stroke-miterlimit="10"/>
</g>
<g opacity="0.24">
<path d="M1093.7 358.763C1101.63 358.763 1108.06 352.324 1108.06 344.381C1108.06 336.439 1101.63 330 1093.7 330C1085.77 330 1079.34 336.439 1079.34 344.381C1079.34 352.324 1085.77 358.763 1093.7 358.763Z" fill="#E6E6F0" stroke="#6842C2" stroke-width="2" stroke-miterlimit="10"/>
<path d="M1099.59 342.963L1091.39 338.224C1090.49 337.704 1089.37 338.352 1089.37 339.393V348.871C1089.37 349.912 1090.49 350.56 1091.39 350.04L1099.59 345.301C1100.49 344.78 1100.49 343.484 1099.59 342.963Z" fill="#E6E6F0" stroke="#6842C2" stroke-width="2" stroke-miterlimit="10"/>
</g>
<path d="M1035.21 189.214L830.28 330.161C828.767 328.856 827.8 326.929 827.8 324.765V194.611C827.8 190.684 830.983 187.507 834.894 187.507H1030.6C1032.36 187.507 1033.98 188.146 1035.21 189.214Z" fill="#F2F2FA"/>
<mask id="mask0" mask-type="alpha" maskUnits="userSpaceOnUse" x="828" y="158" width="210" height="175">
<path d="M1037.95 166.819V323.587C1037.95 328.316 1034.78 332.144 1030.87 332.144H835.512C833.755 332.144 832.144 331.374 830.906 330.087C829.395 328.514 828.43 326.194 828.43 323.587V166.819C828.43 162.09 831.607 158.262 835.512 158.262H1030.87C1032.62 158.262 1034.24 159.032 1035.47 160.319C1036.99 161.892 1037.95 164.212 1037.95 166.819Z" fill="#A3D1DE"/>
</mask>
<g mask="url(#mask0)">
<path d="M1021.44 268.967C1021.44 268.967 1033.14 259.718 1033.45 257.07C1034.04 252.084 1035.82 248.176 1046.53 244.87C1046.53 244.87 1047.36 246.459 1045.87 248.185C1044.25 250.057 1042.96 250.714 1042.96 250.714C1042.96 250.714 1045.8 251.801 1050.02 248.495C1054.24 245.199 1056.02 242.332 1057.8 243.035C1057.8 243.035 1059.9 241.136 1060.89 241.437C1060.89 241.437 1061.62 241.656 1061.48 242.442C1063.13 242.186 1062.79 246.952 1059.86 250.824C1055.64 256.394 1050.37 261.188 1046.05 262.767C1042.82 263.954 1029.44 277.587 1029.44 277.587L1021.44 268.967Z" fill="#FFCAD0"/>
<path d="M985.314 316.157C980.208 317.883 951.877 274.254 951.877 274.254C940.925 261.635 950.755 220.071 960.667 234.644C960.667 234.644 986.445 281.34 989.226 285.102C992.682 289.777 1004.18 309.774 985.314 316.157Z" fill="#04D361"/>
<path d="M953.39 359.465H878.691C878.691 359.465 872.955 356.936 877.943 345.906C879.812 341.788 879.001 331.177 878.691 316.613C878.062 287.814 869.527 240.013 880.059 234.534C886.369 231.238 899.773 226.901 909.502 223.933C910.086 223.769 910.651 223.595 911.208 223.431C916.888 221.732 920.946 220.609 920.946 220.609C920.946 220.609 925.651 221.294 935.208 224.125C935.727 224.28 936.265 224.444 936.822 224.609C939.311 225.367 942.083 226.252 945.165 227.302C961.87 232.991 959.992 230.964 962.208 251.856C963.977 268.538 953.39 359.465 953.39 359.465Z" fill="#04D361"/>
<path d="M936.822 224.6C936.603 228.142 935.016 231.274 932.6 233.566C930.147 235.913 926.819 237.337 923.189 237.337C915.703 237.337 909.648 231.338 909.493 223.933C910.077 223.769 910.642 223.595 911.199 223.431C916.879 221.732 920.937 220.609 920.937 220.609C920.937 220.609 925.642 221.294 935.199 224.125C935.718 224.271 936.265 224.435 936.822 224.6Z" fill="#F2F2FA"/>
<path d="M935.18 194.696L934.004 217.45L933.667 223.942C933.53 226.7 932.317 229.156 930.439 230.928C928.579 232.699 926.062 233.777 923.308 233.777C917.481 233.777 912.785 228.964 912.94 223.139L913.232 211.551L913.724 192.303L935.18 194.696Z" fill="#FBD5D9"/>
<path d="M935.18 199.243L934.004 220.673C923.937 221.075 916.597 216.984 913.232 211.524L913.724 196.869L935.18 199.243Z" fill="#FFA4AD"/>
<path d="M907.04 172.416C907.04 172.416 897.393 171.21 898.496 183.318C899.354 192.705 912.092 205.233 912.092 205.233C912.092 205.233 920.135 176.945 907.04 172.416Z" fill="#8F4A3F"/>
<path d="M946.442 181.136C945.785 182.633 944.773 183.939 943.943 185.345C943.123 186.751 942.466 188.358 942.649 189.984C942.484 187.345 940.743 185.126 939.238 182.962C937.734 180.789 936.366 178.159 937.086 175.621C937.77 173.183 942.174 169.338 944.855 170.918C947.837 172.671 947.609 178.479 946.442 181.136Z" fill="#0E1235"/>
<path d="M943.168 181.619C943.168 181.619 943.916 189.034 942.877 197.243C941.673 206.73 942.101 217.87 928.141 218.618C913.241 219.413 908.308 202.712 908.308 202.712C908.308 202.712 900.393 201.233 899.855 195.882C899.317 190.522 904.843 190.221 906.648 191.727C906.648 191.727 908.691 171.758 927.12 171.758C943.378 171.74 943.168 181.619 943.168 181.619Z" fill="#FBD5D9"/>
<path d="M925.66 196.859C925.66 197.672 925.004 198.338 924.183 198.338C923.363 198.338 922.706 197.681 922.706 196.859C922.706 196.047 923.363 195.38 924.183 195.38C925.004 195.38 925.66 196.047 925.66 196.859Z" fill="#9A5449"/>
<path d="M939.01 196.859C939.01 197.672 938.353 198.338 937.533 198.338C936.712 198.338 936.056 197.681 936.056 196.859C936.056 196.047 936.712 195.38 937.533 195.38C938.353 195.38 939.01 196.047 939.01 196.859Z" fill="#9A5449"/>
<path d="M918.813 191.719C918.813 191.719 921.001 188.112 925.661 189.409" stroke="#561E15" stroke-width="1.0274" stroke-miterlimit="10" stroke-linecap="round" stroke-linejoin="round"/>
<path d="M933.694 189.354C933.694 189.354 937.059 186.277 940.369 189.646" stroke="#561E15" stroke-width="1.0274" stroke-miterlimit="10" stroke-linecap="round" stroke-linejoin="round"/>
<path d="M930.74 193.016C930.74 193.016 932.335 197.097 933.694 199.636C935.053 202.174 931.041 203.306 931.041 203.306" stroke="#D66D78" stroke-width="0.7706" stroke-miterlimit="10" stroke-linecap="round" stroke-linejoin="round"/>
<path d="M925.396 207.872C925.396 207.872 928.688 211.067 932.919 209.113" stroke="#D66D78" stroke-width="0.7706" stroke-miterlimit="10" stroke-linecap="round" stroke-linejoin="round"/>
<path d="M906.383 197.599C906.383 197.599 906.338 193.007 902.91 194.257" stroke="#D66D78" stroke-width="0.7706" stroke-miterlimit="10" stroke-linecap="round" stroke-linejoin="round"/>
<path d="M910.907 176.25C910.907 176.25 919.287 184.797 914.7 188.066C909.594 191.709 908.8 196.859 908.8 196.859C908.8 196.859 908.91 195.042 906.639 191.719C904.369 188.386 899.417 176.57 910.907 176.25Z" fill="#8F4A3F"/>
<path d="M985.314 316.157C991.406 320.129 1037.7 270.611 1037.7 270.611L1029.48 259.846C1029.48 259.846 994.287 281.961 989.226 285.102C981.931 289.622 964.825 302.807 985.314 316.157Z" fill="#04D361"/>
<path d="M960.694 287.366C960.694 287.366 962.764 264.731 962.409 257.544C962.409 257.544 965.354 276.546 965.427 294.105L960.694 287.366Z" fill="#03A14A"/>
<path d="M882.466 279.651C882.466 279.651 893.308 233.164 881.709 233.712C881.709 233.712 877.925 234.169 870.521 245.674C865.341 253.718 859.67 267.662 849.329 290.343C844.442 301.063 838.332 315.572 849.676 316.348C855.812 316.769 862.25 313.408 866.043 306.35C872.992 293.42 882.466 279.651 882.466 279.651Z" fill="#04D361"/>
<path d="M892.168 337.514L951.174 323.589C951.165 323.589 932.609 337.514 892.168 337.514Z" fill="#03A14A"/>
<path d="M876.32 288.992C876.32 288.992 885.84 272.108 890.901 263.872L879.019 328.456C879.019 328.456 877.861 302.076 876.32 288.992Z" fill="#03A14A"/>
<path d="M914.262 310.988L878.974 327.488L880.788 310.522L914.262 310.988Z" fill="#03A14A"/>
<path d="M920.043 308.166L920.043 308.166L925.87 276.308L925.87 276.306C926.173 274.628 927.634 273.412 929.345 273.412H941.728C943.932 273.412 945.602 275.412 945.202 277.588L945.202 277.589L939.376 309.446C939.064 311.127 937.601 312.342 935.901 312.342H923.518C921.313 312.342 919.643 310.343 920.043 308.166Z" fill="#04D361" stroke="#04D361"/>
<path d="M937.433 314.193H925.049C922.533 314.193 920.627 311.911 921.083 309.427L926.91 277.569C927.256 275.651 928.925 274.263 930.876 274.263H943.259C945.776 274.263 947.682 276.546 947.226 279.03L941.399 310.888C941.053 312.805 939.384 314.193 937.433 314.193Z" fill="white"/>
<path d="M928.231 285.552L928.232 285.548L929.654 277.768L929.654 277.768L929.655 277.764C929.676 277.643 929.784 277.548 929.919 277.548H932.135C932.307 277.548 932.432 277.703 932.401 277.867L932.4 277.872L930.977 285.651L930.977 285.651L930.977 285.655C930.956 285.777 930.848 285.871 930.712 285.871H928.497C928.325 285.871 928.199 285.717 928.231 285.552Z" fill="#04D361" stroke="#04D361"/>
<path d="M902.627 296.963C902.627 296.963 908.664 296.762 913.287 295.347C915.275 294.735 919.214 294.023 920.518 292.133C921.831 290.225 921.712 286.106 923.025 285.933C924.038 285.796 926.062 289.019 925.542 291.192C925.031 293.32 924.785 294.498 924.01 295.448C923.755 295.767 932.263 296.37 937.652 295.183C941.345 294.37 940.25 298.032 937.743 299.182C937.743 299.182 938.636 301.419 936.019 302.177C936.019 302.177 936.047 305.163 933.548 305.3C933.266 305.994 932.782 307.473 930.621 308.003C927.475 308.779 922.724 309.071 917.937 308.642C915.503 308.423 904.268 310.395 904.268 310.395L902.627 296.963Z" fill="#FFCAD0"/>
<path d="M849.311 316.522C857.928 318.029 909.293 312.221 909.293 312.221L908.016 294.224C908.016 294.224 866.162 296.178 860.581 295.676C842.125 294.041 838.587 314.65 849.311 316.522Z" fill="#04D361"/>
<path d="M912.94 162.681C913.825 161.795 914.81 160.855 916.05 160.718C917.29 160.581 918.703 161.741 918.293 162.928C922.515 161.092 926.928 159.723 931.442 158.846C932.573 158.627 933.794 158.444 934.843 158.947C935.883 159.449 936.53 160.901 935.819 161.805C938.007 162.626 940.433 162.088 942.758 161.814C945.083 161.54 947.737 161.659 949.314 163.384C950.782 164.982 950.81 167.393 950.764 169.566C950.691 172.543 950.618 175.538 949.943 178.441C948.94 182.733 946.606 186.696 943.332 189.645C944.308 186.303 942.566 182.596 939.822 180.45C937.086 178.295 933.557 177.446 930.101 177.053C925.962 176.579 921.749 176.688 917.627 177.364C914.518 177.875 910.077 180.094 906.986 178.688C900.138 175.583 910.296 165.329 912.94 162.681Z" fill="#8F4A3F"/>
</g>
<path d="M1018.8 201.158H975.922C972.64 201.158 969.977 198.492 969.977 195.205V177.198C969.977 173.911 972.64 171.245 975.922 171.245H1018.8C1022.08 171.245 1024.74 173.911 1024.74 177.198V195.205C1024.74 198.492 1022.08 201.158 1018.8 201.158Z" fill="#04D361"/>
<path d="M979.15 199.222V207.422L987.922 198.638L979.15 199.222Z" fill="#04D361"/>
<path d="M982.57 189.626C984.458 189.626 985.989 188.093 985.989 186.201C985.989 184.31 984.458 182.777 982.57 182.777C980.681 182.777 979.15 184.31 979.15 186.201C979.15 188.093 980.681 189.626 982.57 189.626Z" fill="#E6E6F0"/>
<path d="M997.36 189.626C999.248 189.626 1000.78 188.093 1000.78 186.201C1000.78 184.31 999.248 182.777 997.36 182.777C995.471 182.777 993.94 184.31 993.94 186.201C993.94 188.093 995.471 189.626 997.36 189.626Z" fill="#E6E6F0"/>
<path d="M1012.15 189.626C1014.04 189.626 1015.57 188.093 1015.57 186.201C1015.57 184.31 1014.04 182.777 1012.15 182.777C1010.26 182.777 1008.73 184.31 1008.73 186.201C1008.73 188.093 1010.26 189.626 1012.15 189.626Z" fill="#E6E6F0"/>
<path d="M1136.74 444.882L1134.8 468.54H1144.87L1150.11 444.882H1136.74Z" fill="#FEC9CF"/>
<path d="M1145.97 463.591C1145.97 463.591 1150.34 470.668 1147.06 471.928C1143.78 473.188 1122.17 473.298 1116.83 472.503C1111.5 471.7 1128.73 464.386 1132.67 463.235C1136.62 462.085 1137.89 468.084 1145.97 463.591Z" fill="#6842C2"/>
<path d="M1189.72 444.882L1191.65 468.54H1181.57L1176.35 444.882H1189.72Z" fill="#FEC9CF"/>
<path d="M1180.48 463.591C1180.48 463.591 1176.1 470.668 1179.39 471.928C1182.67 473.188 1204.28 473.298 1209.61 472.503C1214.95 471.7 1197.71 464.386 1193.77 463.235C1189.83 462.085 1188.56 468.084 1180.48 463.591Z" fill="#6842C2"/>
<path d="M1134.71 315.522L1130.14 457.374H1151.42L1156 362.894L1174.23 460.085L1197.4 456.223C1197.4 456.223 1176.49 350.202 1172.93 315.532H1134.71V315.522Z" fill="#D8D8E3"/>
<path d="M1155.03 369.401L1154.3 354.101L1155.5 362.901L1155.03 369.401Z" fill="#194248" stroke="#C9C9D4"/>
<path d="M1166.09 315.522L1190.71 457.017" stroke="#C9C9D4" stroke-miterlimit="10" stroke-linecap="round" stroke-linejoin="round"/>
<path d="M1160.97 210.962C1165.51 210.972 1170.33 213.355 1171.86 217.637C1173.05 220.934 1172.15 224.823 1173.81 227.91C1175.04 230.192 1177.48 231.663 1178.58 234C1180.86 238.858 1176.42 244.629 1177.83 249.797C1179.14 254.581 1185.06 257.321 1185.55 262.261C1185.87 265.411 1183.65 268.433 1180.8 269.803C1177.95 271.182 1174.62 271.173 1171.5 270.652C1163.85 269.365 1156.64 265.164 1148.89 265.566C1145.7 265.731 1142.36 266.662 1139.41 265.429C1137.3 264.553 1135.78 262.699 1134.44 260.855C1132.9 258.736 1131.42 256.326 1131.57 253.714C1131.78 249.879 1135.25 247.194 1137.33 243.971C1139.45 240.675 1140.35 236.557 1139.76 232.676C1136.94 214.231 1147.3 214.797 1148.62 214.77C1149.83 214.743 1153.86 212.268 1155.46 211.802C1157.26 211.282 1159.11 210.962 1160.97 210.962Z" fill="#D38D00"/>
<path d="M1112.3 288.348C1107.91 284.851 1090.08 273.035 1089.9 271.382C1089.58 268.278 1088.49 265.821 1081.84 263.703C1081.84 263.703 1081.31 264.689 1082.24 265.776C1083.23 266.954 1084.03 267.365 1084.03 267.365C1084.03 267.365 1082.26 268.022 1079.66 265.94C1077.05 263.858 1075.96 262.059 1074.85 262.489C1074.85 262.489 1073.55 261.292 1072.93 261.475C1072.93 261.475 1072.48 261.603 1072.56 262.096C1071.53 261.922 1071.71 264.89 1073.51 267.328C1076.1 270.825 1080.67 273.492 1083.35 274.505C1085.35 275.263 1098.51 294.749 1107.33 296.858C1109.86 297.442 1114.34 289.973 1112.3 288.348Z" fill="#FCDDC6"/>
<path d="M1126.1 271.063C1126.1 271.063 1106.38 284.833 1104.48 288.257C1102.57 291.681 1103.99 300.822 1112.77 294.95C1121.56 289.079 1135.42 278.423 1135.42 278.423L1126.1 271.063Z" fill="#FCDDC6"/>
<path d="M1136.23 258.526C1136.23 258.526 1130.81 259.896 1127.2 264.197C1124.17 267.804 1119.29 273.611 1119.29 273.611L1134.25 285.244C1134.26 285.235 1137.9 264.087 1136.23 258.526Z" fill="#47248F"/>
<path d="M1172.93 315.522H1134.7C1134.7 315.522 1134.86 308.957 1132.73 298.758C1130.6 288.568 1131.67 283.235 1133.79 277.912C1135.93 272.588 1132.12 260.28 1136.23 258.526C1137.9 257.814 1140.8 256.664 1143.64 255.559C1144.36 255.285 1145.07 255.002 1145.76 254.737C1149.06 253.459 1151.84 252.399 1151.84 252.399H1158.72C1158.72 252.399 1163.46 253.97 1168.33 255.915C1168.97 256.171 1169.62 256.435 1170.26 256.7C1170.26 256.709 1170.26 256.709 1170.26 256.709C1172.71 257.741 1175.05 258.828 1176.65 259.823C1181.82 263.019 1172.93 315.522 1172.93 315.522Z" fill="#6842C2"/>
<path d="M1149.52 235.461L1150.25 249.633L1150.46 253.678C1150.55 255.394 1151.3 256.928 1152.47 258.033C1153.62 259.138 1155.19 259.805 1156.91 259.805C1160.54 259.805 1163.45 256.81 1163.36 253.185L1163.18 245.971L1162.87 233.982L1149.52 235.461Z" fill="#FFDFC8"/>
<path d="M1149.52 235.461L1150.25 248.811C1156.52 249.066 1161.09 246.51 1163.19 243.113L1162.88 233.982L1149.52 235.461Z" fill="#DA9F74"/>
<path d="M1144.54 224.485C1144.54 224.485 1144.08 229.106 1144.73 234.21C1145.47 240.118 1146.13 246.884 1153.91 247.523C1163.17 248.281 1166.26 237.616 1166.26 237.616C1166.26 237.616 1170.57 236.611 1171.1 233.671C1171.62 230.722 1168.42 229.836 1167.29 230.768C1167.29 230.768 1166.02 218.331 1154.55 218.331C1144.41 218.331 1144.54 224.485 1144.54 224.485Z" fill="#FFDFC8"/>
<path d="M1170.26 256.7C1170.26 256.709 1170.26 256.709 1170.26 256.7C1162.42 266.27 1153.17 265.822 1153.17 265.822C1145.87 264.224 1143.64 255.559 1143.64 255.559C1144.36 255.285 1145.07 255.002 1145.76 254.737C1149.06 253.459 1151.84 252.399 1151.84 252.399H1158.72C1158.72 252.399 1163.46 253.97 1168.33 255.915C1168.97 256.171 1169.62 256.435 1170.26 256.7Z" fill="#04D361"/>
<path d="M1168.33 255.915C1160.34 264.617 1153.41 263.704 1153.41 263.704C1145.96 260.846 1145.76 254.737 1145.76 254.737C1149.06 253.459 1151.84 252.399 1151.84 252.399H1158.72C1158.72 252.399 1163.46 253.97 1168.33 255.915Z" fill="#FCDDC6"/>
<path d="M1148.54 215.646C1148.54 215.646 1149.6 224.641 1143.83 227.608C1143.83 227.608 1140.94 216.715 1148.54 215.646Z" fill="#D38D00"/>
<path d="M1146.79 216.505C1146.79 216.505 1148.84 224.34 1153.93 224.796C1159.01 225.253 1158.11 229.38 1162.62 229.855C1165.3 230.138 1166.49 232.932 1166.49 232.932C1166.49 232.932 1166.88 230.156 1169.31 229.17C1171.75 228.184 1163.57 207.447 1146.79 216.505Z" fill="#D38D00"/>
<path d="M1155.42 235.361C1155.42 235.854 1155.81 236.246 1156.31 236.246C1156.8 236.246 1157.19 235.854 1157.19 235.361C1157.19 234.868 1156.8 234.475 1156.31 234.475C1155.82 234.475 1155.42 234.877 1155.42 235.361Z" fill="#60423D"/>
<path d="M1147.42 235.36C1147.42 235.853 1147.81 236.245 1148.3 236.245C1148.79 236.245 1149.18 235.853 1149.18 235.36C1149.18 234.867 1148.78 234.474 1148.3 234.474C1147.81 234.474 1147.42 234.876 1147.42 235.36Z" fill="#60423D"/>
<path d="M1159.53 232.274C1159.53 232.274 1158.22 230.11 1155.42 230.886" stroke="#561E15" stroke-miterlimit="10" stroke-linecap="round" stroke-linejoin="round"/>
<path d="M1150.61 230.859C1150.61 230.859 1148.58 229.015 1146.6 231.032" stroke="#561E15" stroke-miterlimit="10" stroke-linecap="round" stroke-linejoin="round"/>
<path d="M1152.38 233.059C1152.38 233.059 1151.42 235.506 1150.61 237.031C1149.79 238.556 1152.2 239.232 1152.2 239.232" stroke="#DA9F74" stroke-width="0.75" stroke-miterlimit="10" stroke-linecap="round" stroke-linejoin="round"/>
<path d="M1157.68 240.967C1157.68 240.967 1156.12 243.241 1153.41 242.592" stroke="#DA9F74" stroke-width="0.75" stroke-miterlimit="10" stroke-linecap="round" stroke-linejoin="round"/>
<path d="M1167.27 234.74C1167.27 234.74 1167.29 231.982 1169.35 232.74" stroke="#DA9F74" stroke-width="0.75" stroke-miterlimit="10" stroke-linecap="round" stroke-linejoin="round"/>
<path d="M1135.49 306.409H1100.47C1099.78 306.409 1099.21 305.843 1099.21 305.149C1099.21 304.455 1099.78 303.889 1100.47 303.889H1135.49C1136.18 303.889 1136.75 304.455 1136.75 305.149C1136.74 305.852 1136.18 306.409 1135.49 306.409Z" fill="#04D361"/>
<path d="M1096.54 276.622L1096.54 276.622L1096.53 276.621C1096.32 275.777 1096.97 274.951 1097.84 274.951H1129.38C1130 274.951 1130.53 275.371 1130.68 275.966L1130.68 275.968L1137.47 303.398H1103.17L1096.54 276.622Z" fill="#04D361" stroke="#04D361"/>
<path d="M1135.69 303.898H1100.35L1093.62 276.743C1093.33 275.583 1094.22 274.451 1095.41 274.451H1126.95C1127.8 274.451 1128.54 275.026 1128.74 275.848L1135.69 303.898Z" fill="white"/>
<path d="M1162.59 306.409H1136.09C1135.44 306.409 1134.91 305.88 1134.91 305.232V305.076C1134.91 304.428 1135.44 303.898 1136.09 303.898H1162.59C1163.24 303.898 1163.76 304.428 1163.76 305.076V305.232C1163.77 305.889 1163.24 306.409 1162.59 306.409Z" fill="#04D361"/>
<path d="M1115.48 287.632L1115.48 287.633C1116.07 289.169 1115.52 290.578 1114.57 290.95C1113.63 291.312 1112.27 290.639 1111.68 289.1C1111.09 287.561 1111.65 286.147 1112.59 285.783C1113.53 285.42 1114.89 286.086 1115.48 287.632Z" fill="#04D361" stroke="#04D361"/>
<path d="M1174.86 303.898L1172.56 274.076L1176.98 286.631L1174.86 303.898Z" fill="#47248F"/>
<path d="M1175.16 277.108C1175.16 277.108 1180.62 306.455 1181.97 311.258C1182.84 314.363 1189.21 316.481 1191.2 312.372C1191.64 311.468 1191.54 309.962 1191.49 308.428C1191.18 298.94 1184.56 274.798 1184.56 274.798L1175.16 277.108Z" fill="#FCDDC6"/>
<path d="M1176.66 259.823C1176.66 259.823 1179.91 261.494 1182.65 266.214C1185.38 270.935 1189.16 279.263 1188.92 281.281C1187.5 285.161 1176.27 289.179 1176.27 289.179C1176.27 289.179 1168.76 264.48 1176.66 259.823Z" fill="#6842C2"/>
<path d="M1182.96 305.588C1182.96 305.588 1165.64 305.204 1162.36 303.25C1157.91 300.593 1156.88 301.744 1154.3 301.105C1150.16 300.073 1150.62 300.913 1150.62 300.913C1150.62 300.913 1150.81 303.314 1154.01 303.616C1155.62 303.771 1158.04 304.456 1157.53 304.848C1157.53 304.848 1144.69 306.191 1142.11 306.419C1139.53 306.647 1140.79 308.638 1142.76 309.094C1142.76 309.094 1143.93 310.583 1145.84 310.126C1145.84 310.126 1145.42 310.966 1150.36 310.966C1155.3 310.966 1160.26 308.336 1162.77 309.478C1165.28 310.619 1178.82 315.869 1187.41 314.655C1191.51 314.071 1191.54 312.098 1191.54 310.016C1191.54 306.41 1188.88 305.953 1182.96 305.588Z" fill="#FCDDC6"/>
<path d="M823.705 444.882L817.988 468.54H807.912L810.338 444.882H823.705Z" fill="#BC8567"/>
<path d="M806.818 463.591C806.818 463.591 802.441 470.668 805.724 471.928C809.007 473.188 830.618 473.298 835.952 472.503C841.286 471.7 824.052 464.386 820.113 463.235C816.174 462.085 814.897 468.084 806.818 463.591Z" fill="#6842C2"/>
<path d="M791.973 444.882L788.517 468.54H778.441L778.605 444.882H791.973Z" fill="#BC8567"/>
<path d="M777.347 463.591C777.347 463.591 772.97 470.668 776.253 471.928C779.535 473.188 801.146 473.298 806.481 472.503C811.815 471.7 794.581 464.386 790.642 463.235C786.703 462.085 785.426 468.084 777.347 463.591Z" fill="#6842C2"/>
<path d="M775.04 330.461L775.788 456.707H791.782L803.08 363.954L815.955 401.592L806.317 456.716H823.715C823.715 456.716 839.007 409.079 838.387 399.729C837.767 390.37 820.113 326.617 820.113 326.617L775.04 330.461Z" fill="#D8D8E3"/>
<path d="M805.944 370.816L803.579 363.894L804.681 352.693L805.944 370.816Z" fill="#C9C9D4" stroke="#C9C9D4"/>
<path d="M784.068 328.936L783.146 456.716" stroke="#C9C9D4" stroke-miterlimit="10"/>
<path d="M833.043 272.643C833.043 272.643 843.374 292.21 843.602 298.219C843.83 304.227 837.219 302.885 833.8 297.47C830.381 292.046 824.909 276.669 824.909 276.669L833.043 272.643Z" fill="#BC8567"/>
<path d="M834.976 274.277C834.976 274.277 832.013 279.555 824.909 282.778C823.441 283.445 822.201 281.682 821.28 279.591C820.213 277.153 819.593 274.277 819.593 274.277C819.593 274.277 811.45 249.048 818.627 249.952C818.627 249.952 824.736 250.381 829.222 259.238C830.399 261.548 832.232 266.205 833.764 270.625C834.201 271.885 834.612 273.117 834.976 274.277Z" fill="#47248F"/>
<path d="M834.976 274.277C834.976 274.277 832.013 279.555 824.909 282.778C823.441 283.445 822.201 281.682 821.28 279.591C824.061 278.34 829.323 275.528 833.764 270.625C834.201 271.885 834.612 273.117 834.976 274.277Z" fill="#04D361"/>
<path d="M820.478 327.995C815.964 333.127 786.247 332.369 775.031 330.46C773.061 330.123 771.119 329.365 774.228 322.498C775.396 319.932 774.894 313.331 774.693 304.254C774.301 286.312 768.985 256.544 775.541 253.129C779.472 251.075 787.815 248.372 793.879 246.528C794.244 246.427 794.599 246.318 794.946 246.208C798.484 245.149 801.01 244.446 801.01 244.446C801.01 244.446 803.937 244.875 809.891 246.637C810.21 246.729 810.557 246.838 810.903 246.939C812.453 247.413 814.177 247.961 816.101 248.619C819.83 249.888 822.566 250.664 823.232 251.906C825.01 255.166 824.326 260.946 824.435 269.273C824.581 279.728 824.472 323.466 820.478 327.995Z" fill="#6842C2"/>
<path d="M773.298 283.938L779.709 268.287L775.04 308.546L773.298 283.938Z" fill="#47248F"/>
<path d="M810.903 246.948C810.766 249.158 809.773 251.103 808.277 252.527C806.745 253.988 804.675 254.874 802.423 254.874C797.763 254.874 793.988 251.139 793.897 246.519C794.262 246.418 794.617 246.309 794.964 246.199C798.502 245.14 801.028 244.437 801.028 244.437C801.028 244.437 803.955 244.866 809.909 246.628C810.219 246.747 810.557 246.848 810.903 246.948Z" fill="#04D361"/>
<path d="M814.789 212.5C814.789 212.5 811.413 209.269 806.304 208.5C798.83 207.376 788.991 209.81 787.031 221.235C785.481 227.818 793.496 238.639 796.523 238.009C796.523 238.009 823.774 220.735 814.789 212.5Z" fill="#43302D"/>
<path d="M809.882 228.33L809.153 242.501L808.943 246.546C808.861 248.263 808.104 249.797 806.937 250.902C805.779 252.007 804.21 252.673 802.496 252.673C798.867 252.673 795.949 249.678 796.04 246.053L796.222 238.84L796.532 226.851L809.882 228.33Z" fill="#BC8567"/>
<path d="M809.882 231.152L809.153 244.501C802.888 244.757 798.311 242.2 796.213 238.803L796.523 229.672L809.882 231.152Z" fill="#765441"/>
<path d="M814.852 220.176C814.852 220.176 815.317 224.796 814.669 229.9C813.922 235.808 814.186 242.748 805.487 243.213C796.204 243.707 793.131 233.306 793.131 233.306C793.131 233.306 788.198 232.384 787.861 229.051C787.523 225.718 790.97 225.527 792.092 226.458C792.092 226.458 793.368 214.021 804.839 214.021C814.988 214.031 814.852 220.176 814.852 220.176Z" fill="#BC8567"/>
<path d="M804.237 229.106C804.237 229.617 803.827 230.028 803.317 230.028C802.806 230.028 802.396 229.617 802.396 229.106C802.396 228.594 802.806 228.184 803.317 228.184C803.818 228.184 804.237 228.594 804.237 229.106Z" fill="#60423D"/>
<path d="M813.11 228.631C813.11 229.142 812.699 229.553 812.189 229.553C811.678 229.553 811.268 229.142 811.268 228.631C811.268 228.12 811.678 227.709 812.189 227.709C812.699 227.709 813.11 228.12 813.11 228.631Z" fill="#60423D"/>
<path d="M799.687 226.466C799.687 226.466 801.046 224.221 803.954 225.033" stroke="#43302D" stroke-miterlimit="10" stroke-linecap="round" stroke-linejoin="round"/>
<path d="M808.952 224.997C808.952 224.997 811.049 223.08 813.109 225.179" stroke="#43302D" stroke-miterlimit="10" stroke-linecap="round" stroke-linejoin="round"/>
<path d="M807.119 227.28C807.119 227.28 808.113 229.818 808.961 231.407C809.809 232.987 807.301 233.69 807.301 233.69" stroke="#765441" stroke-width="0.75" stroke-miterlimit="10" stroke-linecap="round" stroke-linejoin="round"/>
<path d="M803.782 236.529C803.782 236.529 805.833 238.52 808.468 237.305" stroke="#765441" stroke-width="0.75" stroke-miterlimit="10" stroke-linecap="round" stroke-linejoin="round"/>
<path d="M791.945 230.128C791.945 230.128 791.918 227.27 789.785 228.046" stroke="#765441" stroke-width="0.75" stroke-miterlimit="10" stroke-linecap="round" stroke-linejoin="round"/>
<path d="M794.763 216.833C794.763 216.833 799.979 222.157 797.125 224.193C793.952 226.458 793.45 229.672 793.45 229.672C793.45 229.672 793.514 228.54 792.101 226.467C790.687 224.394 787.605 217.034 794.763 216.833Z" fill="#43302D"/>
<path d="M766.204 273.693C766.204 273.693 755.873 293.261 755.645 299.269C755.417 305.277 762.028 303.935 765.447 298.52C768.867 293.096 774.338 277.72 774.338 277.72L766.204 273.693Z" fill="#BC8567"/>
<path d="M839.873 291.599C839.873 291.599 824.472 280.185 823.596 279.537C822.11 278.423 819.94 276.806 819.156 276.259C817.915 275.391 810.666 274.131 809.654 274.295C808.651 274.46 805.87 274.935 805.058 275.236C804.247 275.537 805.268 276.578 806.07 277.071C806.873 277.564 810.429 279.409 813.447 279.966C815.125 280.276 816.566 281.125 817.742 281.975C818.681 282.65 834.931 299.241 835.542 299.643L839.873 291.599Z" fill="#BC8567"/>
<path d="M820.806 277.592C820.806 277.592 815.007 272.159 814.14 272.241C813.283 272.323 813.894 273.547 816.174 275.4C816.949 276.031 817.779 277.026 818.472 277.355C819.83 277.994 820.806 277.592 820.806 277.592Z" fill="#BC8567"/>
<path d="M816.133 297.165L816.135 297.165C816.648 297.106 817.072 296.736 817.204 296.23L817.204 296.23L822.255 276.781C822.477 275.926 821.765 275.107 820.884 275.212C820.883 275.212 820.883 275.212 820.883 275.212L799.738 277.741L799.735 277.741L799.735 277.741C799.223 277.8 798.798 278.17 798.667 278.676L798.667 278.676L793.615 298.125C793.394 298.98 794.105 299.799 794.987 299.695L816.133 297.165ZM816.133 297.165L794.987 299.694L816.133 297.165Z" fill="#04D361" stroke="#04D361"/>
<path d="M817.132 298.31L795.986 300.839C794.755 300.986 793.761 299.844 794.071 298.648L799.123 279.199C799.305 278.496 799.898 277.975 800.618 277.893L821.764 275.364C822.995 275.218 823.989 276.359 823.679 277.555L818.627 297.004C818.445 297.698 817.852 298.219 817.132 298.31Z" fill="white"/>
<path d="M800.863 283.108L800.863 283.108L800.862 283.113C800.861 283.117 800.857 283.126 800.845 283.137C800.833 283.147 800.818 283.155 800.8 283.159L799.794 283.276L799.794 283.276C799.773 283.278 799.754 283.272 799.739 283.254C799.723 283.236 799.719 283.217 799.724 283.196L799.724 283.196L800.718 279.379L800.718 279.379L800.721 279.37C800.725 279.351 800.742 279.333 800.768 279.33L801.787 279.211L801.787 279.211C801.808 279.209 801.827 279.216 801.842 279.234C801.858 279.252 801.862 279.271 801.857 279.291L801.857 279.292L800.863 283.108Z" fill="#04D361" stroke="#04D361"/>
<path d="M759.593 293.48C766.049 293.736 786.228 293.316 788.9 292.402C790.049 292.01 792.876 291.416 793.596 290.293C794.326 289.152 794.946 287.417 795.703 287.289C796.286 287.189 796.149 289.07 795.976 289.754C795.648 290.987 795.429 291.626 794.991 292.192C794.845 292.384 799.815 293.096 802.934 292.302C805.076 291.754 804.675 293.471 803.235 294.192C803.235 294.192 803.809 295.69 802.295 296.183C802.295 296.183 802.56 297.845 801.101 297.972C800.946 298.383 800.49 299.123 799.231 299.479C797.408 299.99 794.244 299.981 791.836 300.082C790.414 300.136 762.921 304.437 758.061 303.214C756.037 302.702 757.496 293.398 759.593 293.48Z" fill="#BC8567"/>
<path d="M778.122 276.323C778.122 276.323 777.648 278.121 776.946 279.975C776.161 282.02 775.095 284.121 774.046 283.929C774.046 283.929 759.785 279.418 760.259 277.957C760.614 276.87 761.225 275.455 761.982 273.885C764.344 268.972 768.092 262.562 769.605 260.078C774.766 251.596 776.882 252.673 776.882 252.673C784.113 252.326 778.122 276.323 778.122 276.323Z" fill="#6842C2"/>
<path d="M776.946 279.975C776.161 282.021 775.095 284.121 774.046 283.929C774.046 283.929 759.785 279.418 760.259 277.957C760.614 276.871 761.225 275.455 761.982 273.885C764.608 275.127 771.693 278.386 776.946 279.975Z" fill="#04D361"/>
<path d="M781.469 319.96C781.469 319.96 805.177 316.152 817.943 308.546C817.943 308.546 803.663 322.854 781.469 319.96Z" fill="#47248F"/>
<path d="M1077.15 410.439H1015.5C1012.46 410.439 1010.01 407.974 1010.01 404.942V375.111C1010.01 372.071 1012.47 369.614 1015.5 369.614H1077.15C1080.18 369.614 1082.64 372.08 1082.64 375.111V404.933C1082.65 407.974 1080.18 410.439 1077.15 410.439Z" fill="#6842C2"/>
<path d="M1016.55 399.893C1022.29 399.893 1022.29 393.044 1028.03 393.044C1033.78 393.044 1033.78 383.913 1039.52 383.913C1045.27 383.913 1045.27 387.411 1051.01 387.411C1056.76 387.411 1056.76 378.964 1062.5 378.964C1068.25 378.964 1068.25 392.214 1073.99 392.214" stroke="white" stroke-width="2" stroke-miterlimit="10" stroke-linecap="round" stroke-linejoin="round"/>
<path d="M1018.22 399.892C1018.22 398.97 1017.48 398.222 1016.55 398.222C1015.63 398.222 1014.89 398.97 1014.89 399.892C1014.89 400.814 1015.63 401.563 1016.55 401.563C1017.48 401.563 1018.22 400.814 1018.22 399.892Z" fill="white"/>
<path d="M1075.67 392.222C1075.67 391.3 1074.92 390.552 1074 390.552C1073.08 390.552 1072.33 391.3 1072.33 392.222C1072.33 393.145 1073.08 393.893 1074 393.893C1074.92 393.893 1075.67 393.145 1075.67 392.222Z" fill="white"/>
<path d="M720.62 195.047H782.198C786.32 195.047 789.666 191.696 789.666 187.568V168.749C789.666 164.622 786.32 161.271 782.198 161.271H720.62C716.499 161.271 713.152 164.622 713.152 168.749V187.568C713.152 191.705 716.499 195.047 720.62 195.047Z" fill="#6842C2"/>
<path d="M780.493 193.111V201.311L771.712 192.527L780.493 193.111Z" fill="#6842C2"/>
<path d="M720.228 169.562H737.298" stroke="white" stroke-width="2.2165" stroke-miterlimit="10" stroke-linecap="round" stroke-linejoin="round"/>
<path d="M743.38 169.562H782.59" stroke="white" stroke-width="2.2165" stroke-miterlimit="10" stroke-linecap="round" stroke-linejoin="round"/>
<path d="M720.228 178.164H752.052" stroke="white" stroke-width="2.2165" stroke-miterlimit="10" stroke-linecap="round" stroke-linejoin="round"/>
<path d="M756.921 178.164H766.341" stroke="white" stroke-width="2.2165" stroke-miterlimit="10" stroke-linecap="round" stroke-linejoin="round"/>
<path d="M771.393 178.164H782.59" stroke="white" stroke-width="2.2165" stroke-miterlimit="10" stroke-linecap="round" stroke-linejoin="round"/>
<path d="M720.228 186.756H727.432" stroke="white" stroke-width="2.2165" stroke-miterlimit="10" stroke-linecap="round" stroke-linejoin="round"/>
<path d="M731.845 186.756H757.833" stroke="white" stroke-width="2.2165" stroke-miterlimit="10" stroke-linecap="round" stroke-linejoin="round"/>
<path d="M1103.89 164.552H1088.09C1085.15 164.552 1082.77 162.168 1082.77 159.228V143.404C1082.77 140.464 1085.15 138.081 1088.09 138.081H1103.89C1106.83 138.081 1109.21 140.464 1109.21 143.404V159.228C1109.21 162.168 1106.83 164.552 1103.89 164.552Z" fill="#6842C2"/>
<path d="M1104.99 149.95L1104.59 148.215C1104.52 147.877 1104.17 147.667 1103.84 147.74L1102.82 147.978C1102.55 148.042 1102.29 147.914 1102.14 147.686C1101.74 147.056 1101.25 146.489 1100.68 146.015C1100.45 145.823 1100.38 145.512 1100.51 145.248L1101.02 144.198C1101.17 143.887 1101.04 143.504 1100.73 143.358L1099.12 142.581C1098.81 142.426 1098.43 142.563 1098.28 142.874L1097.74 144.015C1097.62 144.271 1097.34 144.398 1097.06 144.362C1096.72 144.316 1096.37 144.289 1096.02 144.289C1095.67 144.289 1095.32 144.316 1094.98 144.362C1094.7 144.398 1094.43 144.271 1094.31 144.015L1093.76 142.874C1093.61 142.563 1093.23 142.426 1092.92 142.581L1091.32 143.358C1091.01 143.513 1090.87 143.887 1091.03 144.198L1091.54 145.248C1091.66 145.512 1091.58 145.823 1091.36 146.015C1090.8 146.499 1090.3 147.056 1089.9 147.686C1089.76 147.914 1089.49 148.042 1089.23 147.978L1088.21 147.74C1087.87 147.667 1087.53 147.877 1087.45 148.215L1087.06 149.95C1086.99 150.288 1087.2 150.626 1087.53 150.708L1088.83 151C1088.82 151.183 1088.8 151.356 1088.8 151.539C1088.8 152.406 1088.96 153.246 1089.24 154.013C1089.33 154.269 1089.27 154.561 1089.05 154.735L1088.54 155.137C1088.27 155.356 1088.23 155.748 1088.44 156.022L1089.5 157.419C1089.72 157.693 1090.11 157.739 1090.39 157.52L1090.73 157.237C1090.97 157.054 1091.3 157.063 1091.53 157.246C1092.26 157.812 1093.09 158.25 1094 158.515C1094.27 158.597 1094.47 158.835 1094.47 159.127V159.492C1094.47 159.839 1094.75 160.122 1095.1 160.122H1096.88C1097.23 160.122 1097.51 159.839 1097.51 159.492V159.127C1097.51 158.835 1097.71 158.597 1097.98 158.515C1098.89 158.25 1099.72 157.821 1100.45 157.246C1100.69 157.063 1101.02 157.045 1101.25 157.237L1101.59 157.52C1101.87 157.739 1102.26 157.693 1102.48 157.419L1103.59 156.031C1103.81 155.757 1103.76 155.365 1103.49 155.146L1102.99 154.744C1102.77 154.57 1102.71 154.278 1102.8 154.023C1103.08 153.246 1103.23 152.416 1103.23 151.548C1103.23 151.365 1103.22 151.192 1103.21 151.009L1104.5 150.717C1104.85 150.626 1105.06 150.288 1104.99 149.95ZM1095.99 156.05C1093.51 156.05 1091.49 154.032 1091.49 151.539C1091.49 149.046 1093.51 147.028 1095.99 147.028C1098.48 147.028 1100.5 149.046 1100.5 151.539C1100.5 154.032 1098.48 156.05 1095.99 156.05Z" fill="white"/>
<path d="M1244.14 269.35C1245.76 259.369 1238.99 249.967 1229.03 248.348C1219.06 246.73 1209.67 253.509 1208.05 263.489C1206.43 273.47 1213.2 282.872 1223.16 284.491C1233.13 286.109 1242.52 279.33 1244.14 269.35Z" fill="#6842C2"/>
<path d="M1236.1 268.823C1237.41 263.292 1233.99 257.751 1228.46 256.446C1222.94 255.141 1217.4 258.567 1216.1 264.097C1214.79 269.628 1218.21 275.17 1223.74 276.475C1229.26 277.779 1234.8 274.354 1236.1 268.823Z" fill="#6842C2" stroke="white" stroke-width="2" stroke-miterlimit="10" stroke-linecap="round" stroke-linejoin="round"/>
<path d="M1226.08 259.695V266.424L1222.53 269.976" fill="#6842C2"/>
<path d="M1226.08 259.695V266.424L1222.53 269.976" stroke="white" stroke-width="2" stroke-miterlimit="10" stroke-linecap="round" stroke-linejoin="round"/>
<path d="M1226.08 256.133V257.119" stroke="white" stroke-width="2" stroke-miterlimit="10" stroke-linecap="round" stroke-linejoin="round"/>
<path d="M1226.08 275.738V276.715" stroke="white" stroke-width="2" stroke-miterlimit="10" stroke-linecap="round" stroke-linejoin="round"/>
<path d="M1236.36 266.424H1235.37" stroke="white" stroke-width="2" stroke-miterlimit="10" stroke-linecap="round" stroke-linejoin="round"/>
<path d="M1216.79 266.424H1215.8" stroke="white" stroke-width="2" stroke-miterlimit="10" stroke-linecap="round" stroke-linejoin="round"/>
<path d="M232.759 194.372H180.803C166.978 194.372 160 201.083 160 214.377V285.522C160 287.265 160.936 288.338 162.952 288.338H178.658C180.537 288.338 181.747 287.265 181.747 285.522V282.821C181.747 276.231 184.524 272.64 191.426 271.947H232.759C247.924 271.947 254.772 265.373 254.772 251.007V215.312C254.772 200.946 247.924 194.372 232.759 194.372ZM233.048 244.965C233.048 252.757 231.283 254.363 222.015 254.363H200.001C190.741 254.363 184.829 257.452 181.739 263.494V219.612C181.739 213.57 183.216 211.957 190.596 211.957H222.015C231.283 211.957 233.048 213.57 233.048 221.354V244.965Z" fill="white"/>
<path d="M304.574 233.704C292.628 233.704 287.522 239.746 287.522 249.95V285.789C287.522 287.402 286.715 288.338 284.836 288.338H270.607C268.727 288.338 267.791 287.402 267.791 285.789V220.281C267.791 218.668 268.727 217.725 270.607 217.725H282.553C284.303 217.725 285.239 218.668 285.239 220.281V230.851C287.522 222.13 294.104 217.694 305.784 217.694H310.616C312.358 217.694 313.294 218.638 313.294 220.251V231.155C313.294 232.897 312.358 233.704 310.616 233.704H304.574Z" fill="white"/>
<path d="M397.193 269.14C397.193 282.433 391.288 288.338 377.196 288.338H342.293C328.33 288.338 322.288 282.433 322.288 269.14V236.938C322.288 223.652 328.33 217.74 342.293 217.74H377.196C391.288 217.74 397.193 223.652 397.193 236.938V269.14ZM377.462 242.028C377.462 235.043 376.123 233.704 367.799 233.704H351.819C343.366 233.704 342.019 235.043 342.019 242.028V264.041C342.019 271.019 343.366 272.366 351.819 272.366H367.799C376.123 272.366 377.462 271.019 377.462 264.041V242.028Z" fill="white"/>
<path d="M417.06 233.704H410.341C408.591 233.704 407.655 232.897 407.655 231.155V220.281C407.655 218.668 408.591 217.725 410.341 217.725H417.053V209.004C417.06 195.711 424.038 189 437.864 189H454.376C456.255 189 457.062 189.944 457.062 191.549V202.423C457.062 204.173 456.255 204.972 454.376 204.972H445.655C438.267 204.972 436.791 206.585 436.791 212.626V217.725H454.376C456.255 217.725 457.062 218.668 457.062 220.281V231.155C457.062 232.897 456.255 233.704 454.376 233.704H436.791V285.789C436.791 287.402 435.855 288.338 433.975 288.338H419.746C417.867 288.338 417.06 287.402 417.06 285.789V233.704Z" fill="white"/>
<path d="M471.831 233.704H465.127C463.385 233.704 462.449 232.897 462.449 231.155V220.281C462.449 218.668 463.385 217.725 465.127 217.725H471.846V209.004C471.831 195.711 478.824 189 492.634 189H509.146C511.026 189 511.832 189.944 511.832 191.549V202.423C511.832 204.173 511.026 204.972 509.146 204.972H500.419C493.038 204.972 491.562 206.585 491.562 212.626V217.725H509.146C511.026 217.725 511.832 218.668 511.832 220.281V231.155C511.832 232.897 511.026 233.704 509.146 233.704H491.562V285.789C491.562 287.402 490.618 288.338 488.739 288.338H474.509C472.63 288.338 471.831 287.402 471.831 285.789V233.704Z" fill="white"/>
<path d="M571.831 315.723H542.566C529.417 315.723 523.779 310.625 523.779 298.001V296.662C523.74 296.302 523.782 295.937 523.904 295.596C524.025 295.254 524.221 294.944 524.479 294.689C524.736 294.434 525.047 294.24 525.39 294.122C525.733 294.004 526.097 293.964 526.457 294.006H540.154C542.033 294.006 542.969 294.95 542.969 296.692V297.362C542.969 300.048 544.453 301.121 547.405 301.121H564.32C572.371 301.121 574.387 299.112 574.387 292.264V271.087C571.298 277.129 565.393 280.218 556.125 280.218H542.429C528.466 280.218 522.287 274.314 522.287 261.021V220.281C522.269 219.929 522.327 219.578 522.458 219.251C522.588 218.923 522.788 218.628 523.043 218.385C523.298 218.142 523.602 217.958 523.936 217.844C524.269 217.729 524.623 217.689 524.973 217.724H539.34C541.082 217.724 542.026 218.668 542.026 220.281V255.96C542.026 262.938 543.502 264.285 551.826 264.285H562.03C570.887 264.285 574.38 260.655 574.38 253.274V220.281C574.38 218.668 575.316 217.724 577.066 217.724H591.439C591.783 217.691 592.13 217.735 592.455 217.851C592.78 217.968 593.075 218.156 593.318 218.4C593.562 218.645 593.749 218.94 593.864 219.265C593.98 219.591 594.023 219.938 593.989 220.281V294.379C593.981 308.464 586.463 315.723 571.831 315.723Z" fill="white"/>
<path d="M179.08 353.16C179.08 343.872 165.544 347.904 165.544 341.424C165.544 338.724 167.668 337.32 170.368 337.392C173.428 337.428 175.012 339.336 175.228 341.028H178.828C178.432 337.212 175.3 334.584 170.512 334.584C165.544 334.584 162.196 337.392 162.196 341.532C162.196 350.856 175.768 346.536 175.768 353.304C175.768 355.68 173.896 357.48 170.728 357.48C167.236 357.48 165.76 355.392 165.544 353.304H162.052C162.124 357.444 165.688 360.252 170.728 360.252C176.164 360.252 179.08 356.724 179.08 353.16Z" fill="#D4C2FF"/>
<path d="M201.397 340.272H198.121V351.108C198.121 355.356 195.853 357.444 192.469 357.444C189.157 357.444 186.961 355.392 186.961 351.396V340.272H183.721V351.828C183.721 357.48 187.285 360.288 191.821 360.288C194.449 360.288 196.861 359.136 198.121 357.084V360H201.397V340.272Z" fill="#D4C2FF"/>
<path d="M205.704 350.064C205.704 356.184 209.772 360.324 215.028 360.324C218.664 360.324 221.22 358.452 222.408 356.328V360H225.72V340.272H222.408V343.872C221.256 341.82 218.736 339.948 215.064 339.948C209.772 339.948 205.704 343.908 205.704 350.064ZM222.408 350.1C222.408 354.744 219.312 357.444 215.712 357.444C212.112 357.444 209.052 354.708 209.052 350.064C209.052 345.42 212.112 342.792 215.712 342.792C219.312 342.792 222.408 345.528 222.408 350.1Z" fill="#D4C2FF"/>
<path d="M244.13 343.908V340.272H240.854V369.36H244.13V356.364C245.354 358.38 247.91 360.324 251.51 360.324C256.802 360.324 260.87 356.184 260.87 350.064C260.87 343.908 256.802 339.948 251.51 339.948C247.91 339.948 245.318 341.82 244.13 343.908ZM257.522 350.064C257.522 354.708 254.462 357.444 250.826 357.444C247.262 357.444 244.13 354.744 244.13 350.1C244.13 345.528 247.262 342.792 250.826 342.792C254.462 342.792 257.522 345.42 257.522 350.064Z" fill="#D4C2FF"/>
<path d="M265.182 360H268.458V333.36H265.182V360Z" fill="#D4C2FF"/>
<path d="M272.818 350.064C272.818 356.184 276.886 360.324 282.142 360.324C285.778 360.324 288.334 358.452 289.522 356.328V360H292.834V340.272H289.522V343.872C288.37 341.82 285.85 339.948 282.178 339.948C276.886 339.948 272.818 343.908 272.818 350.064ZM289.522 350.1C289.522 354.744 286.426 357.444 282.826 357.444C279.226 357.444 276.166 354.708 276.166 350.064C276.166 345.42 279.226 342.792 282.826 342.792C286.426 342.792 289.522 345.528 289.522 350.1Z" fill="#D4C2FF"/>
<path d="M298.982 360H302.258V342.972H306.398V340.272H302.258V338.868C302.258 336.312 303.23 335.232 306.182 335.232V332.496C301.142 332.496 298.982 334.476 298.982 338.868V340.272H296.426V342.972H298.982V360Z" fill="#D4C2FF"/>
<path d="M328.937 350.1C328.937 343.872 324.581 339.948 318.965 339.948C313.385 339.948 308.993 343.872 308.993 350.1C308.993 356.364 313.241 360.324 318.821 360.324C324.437 360.324 328.937 356.364 328.937 350.1ZM312.341 350.1C312.341 345.132 315.473 342.792 318.929 342.792C322.313 342.792 325.589 345.132 325.589 350.1C325.589 355.104 322.241 357.444 318.821 357.444C315.401 357.444 312.341 355.104 312.341 350.1Z" fill="#D4C2FF"/>
<path d="M336.521 349.272C336.521 344.7 338.897 343.296 342.029 343.296H342.893V339.912C339.761 339.912 337.637 341.28 336.521 343.476V340.272H333.245V360H336.521V349.272Z" fill="#D4C2FF"/>
<path d="M375.15 360H378.39V348.372C378.39 342.72 374.898 339.912 370.398 339.912C367.374 339.912 364.566 341.46 363.414 344.304C362.118 341.352 359.418 339.912 356.178 339.912C353.586 339.912 351.246 341.028 349.95 343.116V340.272H346.674V360H349.95V349.128C349.95 344.88 352.218 342.756 355.53 342.756C358.77 342.756 360.93 344.808 360.93 348.84V360H364.17V349.128C364.17 344.88 366.438 342.756 369.75 342.756C372.99 342.756 375.15 344.808 375.15 348.84V360Z" fill="#D4C2FF"/>
<path d="M382.54 350.064C382.54 356.184 386.608 360.324 391.864 360.324C395.5 360.324 398.056 358.452 399.244 356.328V360H402.556V340.272H399.244V343.872C398.092 341.82 395.572 339.948 391.9 339.948C386.608 339.948 382.54 343.908 382.54 350.064ZM399.244 350.1C399.244 354.744 396.148 357.444 392.548 357.444C388.948 357.444 385.888 354.708 385.888 350.064C385.888 345.42 388.948 342.792 392.548 342.792C396.148 342.792 399.244 345.528 399.244 350.1Z" fill="#D4C2FF"/>
<path d="M416.466 350.064C416.466 356.184 420.534 360.324 425.826 360.324C429.426 360.324 431.982 358.488 433.17 356.292V360H436.482V333.36H433.17V343.8C431.802 341.532 428.958 339.948 425.862 339.948C420.534 339.948 416.466 343.908 416.466 350.064ZM433.17 350.1C433.17 354.744 430.074 357.444 426.474 357.444C422.874 357.444 419.814 354.708 419.814 350.064C419.814 345.42 422.874 342.792 426.474 342.792C430.074 342.792 433.17 345.528 433.17 350.1Z" fill="#D4C2FF"/>
<path d="M450.406 342.72C453.79 342.72 456.67 344.844 456.634 348.696H444.178C444.538 344.844 447.202 342.72 450.406 342.72ZM459.622 353.916H456.094C455.374 356.04 453.502 357.552 450.55 357.552C447.202 357.552 444.394 355.356 444.142 351.36H459.91C459.982 350.676 460.018 350.1 460.018 349.38C460.018 343.98 456.274 339.948 450.55 339.948C444.79 339.948 440.794 343.872 440.794 350.1C440.794 356.364 444.934 360.324 450.55 360.324C455.446 360.324 458.614 357.516 459.622 353.916Z" fill="#D4C2FF"/>
<path d="M171.16 388.72C174.544 388.72 177.424 390.844 177.388 394.696H164.932C165.292 390.844 167.956 388.72 171.16 388.72ZM180.376 399.916H176.848C176.128 402.04 174.256 403.552 171.304 403.552C167.956 403.552 165.148 401.356 164.896 397.36H180.664C180.736 396.676 180.772 396.1 180.772 395.38C180.772 389.98 177.028 385.948 171.304 385.948C165.544 385.948 161.548 389.872 161.548 396.1C161.548 402.364 165.688 406.324 171.304 406.324C176.2 406.324 179.368 403.516 180.376 399.916Z" fill="#D4C2FF"/>
<path d="M199.28 400.636C199.136 393.58 187.688 396.136 187.688 391.456C187.688 389.872 189.128 388.72 191.54 388.72C194.168 388.72 195.68 390.16 195.824 392.14H199.1C198.884 388.288 196.004 385.948 191.648 385.948C187.256 385.948 184.412 388.432 184.412 391.456C184.412 398.8 196.076 396.244 196.076 400.636C196.076 402.256 194.636 403.552 192.044 403.552C189.272 403.552 187.58 402.112 187.4 400.204H184.016C184.232 403.804 187.472 406.324 192.08 406.324C196.436 406.324 199.28 403.876 199.28 400.636Z" fill="#D4C2FF"/>
<path d="M204.625 400.6C204.625 404.56 206.605 406 210.097 406H213.049V403.228H210.637C208.621 403.228 207.901 402.544 207.901 400.6V388.972H213.049V386.272H207.901V381.304H204.625V386.272H202.069V388.972H204.625V400.6Z" fill="#D4C2FF"/>
<path d="M234.514 386.272H231.238V397.108C231.238 401.356 228.97 403.444 225.586 403.444C222.274 403.444 220.078 401.392 220.078 397.396V386.272H216.838V397.828C216.838 403.48 220.402 406.288 224.938 406.288C227.566 406.288 229.978 405.136 231.238 403.084V406H234.514V386.272Z" fill="#D4C2FF"/>
<path d="M238.821 396.064C238.821 402.184 242.889 406.324 248.181 406.324C251.781 406.324 254.337 404.488 255.525 402.292V406H258.837V379.36H255.525V389.8C254.157 387.532 251.313 385.948 248.217 385.948C242.889 385.948 238.821 389.908 238.821 396.064ZM255.525 396.1C255.525 400.744 252.429 403.444 248.829 403.444C245.229 403.444 242.169 400.708 242.169 396.064C242.169 391.42 245.229 388.792 248.829 388.792C252.429 388.792 255.525 391.528 255.525 396.1Z" fill="#D4C2FF"/>
<path d="M283.094 396.1C283.094 389.872 278.738 385.948 273.122 385.948C267.542 385.948 263.15 389.872 263.15 396.1C263.15 402.364 267.398 406.324 272.978 406.324C278.594 406.324 283.094 402.364 283.094 396.1ZM266.498 396.1C266.498 391.132 269.63 388.792 273.086 388.792C276.47 388.792 279.746 391.132 279.746 396.1C279.746 401.104 276.398 403.444 272.978 403.444C269.558 403.444 266.498 401.104 266.498 396.1Z" fill="#D4C2FF"/>
<path d="M301.585 400.636C301.441 393.58 289.993 396.136 289.993 391.456C289.993 389.872 291.433 388.72 293.845 388.72C296.473 388.72 297.985 390.16 298.129 392.14H301.405C301.189 388.288 298.309 385.948 293.953 385.948C289.561 385.948 286.717 388.432 286.717 391.456C286.717 398.8 298.381 396.244 298.381 400.636C298.381 402.256 296.941 403.552 294.349 403.552C291.577 403.552 289.885 402.112 289.705 400.204H286.321C286.537 403.804 289.777 406.324 294.385 406.324C298.741 406.324 301.585 403.876 301.585 400.636Z" fill="#D4C2FF"/>
<path d="M334.527 396.1C334.527 389.872 330.171 385.948 324.555 385.948C318.975 385.948 314.583 389.872 314.583 396.1C314.583 402.364 318.831 406.324 324.411 406.324C330.027 406.324 334.527 402.364 334.527 396.1ZM317.931 396.1C317.931 391.132 321.063 388.792 324.519 388.792C327.903 388.792 331.179 391.132 331.179 396.1C331.179 401.104 327.831 403.444 324.411 403.444C320.991 403.444 317.931 401.104 317.931 396.1Z" fill="#D4C2FF"/>
<path d="M353.271 406H356.51V394.372C356.51 388.72 353.019 385.912 348.447 385.912C345.783 385.912 343.407 387.028 342.111 389.08V386.272H338.835V406H342.111V395.092C342.111 390.844 344.415 388.756 347.763 388.756C351.075 388.756 353.271 390.808 353.271 394.84V406Z" fill="#D4C2FF"/>
<path d="M361.862 406H365.138V379.36H361.862V406Z" fill="#D4C2FF"/>
<path d="M370.721 406H373.997V386.272H370.721V406ZM372.413 383.068C373.601 383.068 374.573 382.096 374.573 380.836C374.573 379.576 373.601 378.604 372.413 378.604C371.153 378.604 370.181 379.576 370.181 380.836C370.181 382.096 371.153 383.068 372.413 383.068Z" fill="#D4C2FF"/>
<path d="M394.017 406H397.257V394.372C397.257 388.72 393.765 385.912 389.193 385.912C386.529 385.912 384.153 387.028 382.857 389.08V386.272H379.581V406H382.857V395.092C382.857 390.844 385.161 388.756 388.509 388.756C391.821 388.756 394.017 390.808 394.017 394.84V406Z" fill="#D4C2FF"/>
<path d="M410.996 388.72C414.38 388.72 417.26 390.844 417.224 394.696H404.768C405.128 390.844 407.792 388.72 410.996 388.72ZM420.212 399.916H416.684C415.964 402.04 414.092 403.552 411.14 403.552C407.792 403.552 404.984 401.356 404.732 397.36H420.5C420.572 396.676 420.608 396.1 420.608 395.38C420.608 389.98 416.864 385.948 411.14 385.948C405.38 385.948 401.384 389.872 401.384 396.1C401.384 402.364 405.524 406.324 411.14 406.324C416.036 406.324 419.204 403.516 420.212 399.916Z" fill="#D4C2FF"/>
<path d="M428.136 403.984C428.136 402.724 427.164 401.752 425.976 401.752C424.716 401.752 423.744 402.724 423.744 403.984C423.744 405.244 424.716 406.216 425.976 406.216C427.164 406.216 428.136 405.244 428.136 403.984Z" fill="#D4C2FF"/>
<rect x="1240" y="24" width="40" height="40" rx="8" fill="#774DD6"/>
<path d="M1265.3 39.5332C1266.35 40.5822 1267.06 41.9186 1267.35 43.3734C1267.64 44.8282 1267.49 46.336 1266.92 47.7063C1266.36 49.0766 1265.4 50.2478 1264.16 51.0718C1262.93 51.8958 1261.48 52.3356 1260 52.3356C1258.51 52.3356 1257.06 51.8958 1255.83 51.0718C1254.6 50.2478 1253.63 49.0766 1253.07 47.7063C1252.5 46.336 1252.35 44.8282 1252.64 43.3734C1252.93 41.9186 1253.64 40.5822 1254.69 39.5332" stroke="#D4C2FF" stroke-width="1.5" stroke-linecap="round" stroke-linejoin="round"/>
<path d="M1260 35.6665V43.9998" stroke="#D4C2FF" stroke-width="1.5" stroke-linecap="round" stroke-linejoin="round"/>
<circle cx="1440.02" cy="410.999" r="3" fill="#9C98A6"/>
<path d="M720 0.999928L714.226 -9.00007L725.774 -9.00007L720 0.999928ZM2341.02 -99L2341.02 -98L2341.02 -99ZM2360.02 0.999967L2360.02 -79L2362.02 -79L2362.02 0.999967L2360.02 0.999967ZM2341.02 -98L740 -98.0001L740 -100L2341.02 -100L2341.02 -98ZM721 -79.0001L721 -8.00007L719 -8.00007L719 -79.0001L721 -79.0001ZM740 -98.0001C729.507 -98.0001 721 -89.4935 721 -79.0001L719 -79.0001C719 -90.598 728.402 -100 740 -100L740 -98.0001ZM2360.02 -79C2360.02 -89.4935 2351.51 -98 2341.02 -98L2341.02 -100C2352.62 -100 2362.02 -90.598 2362.02 -79L2360.02 -79Z" fill="#9C98A6"/>
</svg>
